<svg width="1440" height="1024" viewBox="0 0 1440 1024" fill="none" xmlns="http://www.w3.org/2000/svg">
<g clip-path="url(#clip0)">
<rect width="1440" height="1024" fill="#303030"/>
<path d="M159.031 514.578C151.312 512.359 145.688 509.641 142.156 506.422C138.656 503.172 136.906 499.172 136.906 494.422C136.906 489.047 139.047 484.609 143.328 481.109C147.641 477.578 153.234 475.812 160.109 475.812C164.797 475.812 168.969 476.719 172.625 478.531C176.312 480.344 179.156 482.844 181.156 486.031C183.188 489.219 184.203 492.703 184.203 496.484H175.156C175.156 492.359 173.844 489.125 171.219 486.781C168.594 484.406 164.891 483.219 160.109 483.219C155.672 483.219 152.203 484.203 149.703 486.172C147.234 488.109 146 490.812 146 494.281C146 497.062 147.172 499.422 149.516 501.359C151.891 503.266 155.906 505.016 161.562 506.609C167.25 508.203 171.688 509.969 174.875 511.906C178.094 513.812 180.469 516.047 182 518.609C183.562 521.172 184.344 524.188 184.344 527.656C184.344 533.188 182.188 537.625 177.875 540.969C173.562 544.281 167.797 545.938 160.578 545.938C155.891 545.938 151.516 545.047 147.453 543.266C143.391 541.453 140.25 538.984 138.031 535.859C135.844 532.734 134.75 529.188 134.75 525.219H143.797C143.797 529.344 145.312 532.609 148.344 535.016C151.406 537.391 155.484 538.578 160.578 538.578C165.328 538.578 168.969 537.609 171.5 535.672C174.031 533.734 175.297 531.094 175.297 527.75C175.297 524.406 174.125 521.828 171.781 520.016C169.438 518.172 165.188 516.359 159.031 514.578ZM192.266 519.172C192.266 514.203 193.234 509.734 195.172 505.766C197.141 501.797 199.859 498.734 203.328 496.578C206.828 494.422 210.812 493.344 215.281 493.344C222.188 493.344 227.766 495.734 232.016 500.516C236.297 505.297 238.438 511.656 238.438 519.594V520.203C238.438 525.141 237.484 529.578 235.578 533.516C233.703 537.422 231 540.469 227.469 542.656C223.969 544.844 219.938 545.938 215.375 545.938C208.5 545.938 202.922 543.547 198.641 538.766C194.391 533.984 192.266 527.656 192.266 519.781V519.172ZM200.984 520.203C200.984 525.828 202.281 530.344 204.875 533.75C207.5 537.156 211 538.859 215.375 538.859C219.781 538.859 223.281 537.141 225.875 533.703C228.469 530.234 229.766 525.391 229.766 519.172C229.766 513.609 228.438 509.109 225.781 505.672C223.156 502.203 219.656 500.469 215.281 500.469C211 500.469 207.547 502.172 204.922 505.578C202.297 508.984 200.984 513.859 200.984 520.203ZM273.828 502.062C272.516 501.844 271.094 501.734 269.562 501.734C263.875 501.734 260.016 504.156 257.984 509V545H249.312V494.281H257.75L257.891 500.141C260.734 495.609 264.766 493.344 269.984 493.344C271.672 493.344 272.953 493.562 273.828 494V502.062ZM306.359 502.062C305.047 501.844 303.625 501.734 302.094 501.734C296.406 501.734 292.547 504.156 290.516 509V545H281.844V494.281H290.281L290.422 500.141C293.266 495.609 297.297 493.344 302.516 493.344C304.203 493.344 305.484 493.562 306.359 494V502.062ZM331.812 532.297L343.625 494.281H352.906L332.516 552.828C329.359 561.266 324.344 565.484 317.469 565.484L315.828 565.344L312.594 564.734V557.703L314.938 557.891C317.875 557.891 320.156 557.297 321.781 556.109C323.438 554.922 324.797 552.75 325.859 549.594L327.781 544.438L309.688 494.281H319.156L331.812 532.297ZM355.344 558.594L350.422 555.219C353.359 551.125 354.891 546.906 355.016 542.562V534.734H363.5V541.531C363.5 544.688 362.719 547.844 361.156 551C359.625 554.156 357.688 556.688 355.344 558.594ZM408.641 518.281V545H399.641V476.75H424.812C432.281 476.75 438.125 478.656 442.344 482.469C446.594 486.281 448.719 491.328 448.719 497.609C448.719 504.234 446.641 509.344 442.484 512.938C438.359 516.5 432.438 518.281 424.719 518.281H408.641ZM408.641 510.922H424.812C429.625 510.922 433.312 509.797 435.875 507.547C438.438 505.266 439.719 501.984 439.719 497.703C439.719 493.641 438.438 490.391 435.875 487.953C433.312 485.516 429.797 484.25 425.328 484.156H408.641V510.922ZM489.594 545C489.094 544 488.688 542.219 488.375 539.656C484.344 543.844 479.531 545.938 473.938 545.938C468.938 545.938 464.828 544.531 461.609 541.719C458.422 538.875 456.828 535.281 456.828 530.938C456.828 525.656 458.828 521.562 462.828 518.656C466.859 515.719 472.516 514.25 479.797 514.25H488.234V510.266C488.234 507.234 487.328 504.828 485.516 503.047C483.703 501.234 481.031 500.328 477.5 500.328C474.406 500.328 471.812 501.109 469.719 502.672C467.625 504.234 466.578 506.125 466.578 508.344H457.859C457.859 505.812 458.75 503.375 460.531 501.031C462.344 498.656 464.781 496.781 467.844 495.406C470.938 494.031 474.328 493.344 478.016 493.344C483.859 493.344 488.438 494.812 491.75 497.75C495.062 500.656 496.781 504.672 496.906 509.797V533.141C496.906 537.797 497.5 541.5 498.688 544.25V545H489.594ZM475.203 538.391C477.922 538.391 480.5 537.688 482.938 536.281C485.375 534.875 487.141 533.047 488.234 530.797V520.391H481.438C470.812 520.391 465.5 523.5 465.5 529.719C465.5 532.438 466.406 534.562 468.219 536.094C470.031 537.625 472.359 538.391 475.203 538.391ZM508.438 519.219C508.438 511.312 510.266 505.031 513.922 500.375C517.578 495.688 522.422 493.344 528.453 493.344C534.641 493.344 539.469 495.531 542.938 499.906L543.359 494.281H551.281V543.781C551.281 550.344 549.328 555.516 545.422 559.297C541.547 563.078 536.328 564.969 529.766 564.969C526.109 564.969 522.531 564.188 519.031 562.625C515.531 561.062 512.859 558.922 511.016 556.203L515.516 551C519.234 555.594 523.781 557.891 529.156 557.891C533.375 557.891 536.656 556.703 539 554.328C541.375 551.953 542.562 548.609 542.562 544.297V539.938C539.094 543.938 534.359 545.938 528.359 545.938C522.422 545.938 517.609 543.547 513.922 538.766C510.266 533.984 508.438 527.469 508.438 519.219ZM517.156 520.203C517.156 525.922 518.328 530.422 520.672 533.703C523.016 536.953 526.297 538.578 530.516 538.578C535.984 538.578 540 536.094 542.562 531.125V507.969C539.906 503.125 535.922 500.703 530.609 500.703C526.391 500.703 523.094 502.344 520.719 505.625C518.344 508.906 517.156 513.766 517.156 520.203ZM585.453 545.938C578.578 545.938 572.984 543.688 568.672 539.188C564.359 534.656 562.203 528.609 562.203 521.047V519.453C562.203 514.422 563.156 509.938 565.062 506C567 502.031 569.688 498.938 573.125 496.719C576.594 494.469 580.344 493.344 584.375 493.344C590.969 493.344 596.094 495.516 599.75 499.859C603.406 504.203 605.234 510.422 605.234 518.516V522.125H570.875C571 527.125 572.453 531.172 575.234 534.266C578.047 537.328 581.609 538.859 585.922 538.859C588.984 538.859 591.578 538.234 593.703 536.984C595.828 535.734 597.688 534.078 599.281 532.016L604.578 536.141C600.328 542.672 593.953 545.938 585.453 545.938ZM584.375 500.469C580.875 500.469 577.938 501.75 575.562 504.312C573.188 506.844 571.719 510.406 571.156 515H596.562V514.344C596.312 509.938 595.125 506.531 593 504.125C590.875 501.688 588 500.469 584.375 500.469ZM640.484 545V476.75H659.75C665.688 476.75 670.938 478.062 675.5 480.688C680.062 483.312 683.578 487.047 686.047 491.891C688.547 496.734 689.812 502.297 689.844 508.578V512.938C689.844 519.375 688.594 525.016 686.094 529.859C683.625 534.703 680.078 538.422 675.453 541.016C670.859 543.609 665.5 544.938 659.375 545H640.484ZM649.484 484.156V537.641H658.953C665.891 537.641 671.281 535.484 675.125 531.172C679 526.859 680.938 520.719 680.938 512.75V508.766C680.938 501.016 679.109 495 675.453 490.719C671.828 486.406 666.672 484.219 659.984 484.156H649.484ZM699.828 519.172C699.828 514.203 700.797 509.734 702.734 505.766C704.703 501.797 707.422 498.734 710.891 496.578C714.391 494.422 718.375 493.344 722.844 493.344C729.75 493.344 735.328 495.734 739.578 500.516C743.859 505.297 746 511.656 746 519.594V520.203C746 525.141 745.047 529.578 743.141 533.516C741.266 537.422 738.562 540.469 735.031 542.656C731.531 544.844 727.5 545.938 722.938 545.938C716.062 545.938 710.484 543.547 706.203 538.766C701.953 533.984 699.828 527.656 699.828 519.781V519.172ZM708.547 520.203C708.547 525.828 709.844 530.344 712.438 533.75C715.062 537.156 718.562 538.859 722.938 538.859C727.344 538.859 730.844 537.141 733.438 533.703C736.031 530.234 737.328 525.391 737.328 519.172C737.328 513.609 736 509.109 733.344 505.672C730.719 502.203 727.219 500.469 722.844 500.469C718.562 500.469 715.109 502.172 712.484 505.578C709.859 508.984 708.547 513.859 708.547 520.203ZM777.922 545.938C771.047 545.938 765.453 543.688 761.141 539.188C756.828 534.656 754.672 528.609 754.672 521.047V519.453C754.672 514.422 755.625 509.938 757.531 506C759.469 502.031 762.156 498.938 765.594 496.719C769.062 494.469 772.812 493.344 776.844 493.344C783.438 493.344 788.562 495.516 792.219 499.859C795.875 504.203 797.703 510.422 797.703 518.516V522.125H763.344C763.469 527.125 764.922 531.172 767.703 534.266C770.516 537.328 774.078 538.859 778.391 538.859C781.453 538.859 784.047 538.234 786.172 536.984C788.297 535.734 790.156 534.078 791.75 532.016L797.047 536.141C792.797 542.672 786.422 545.938 777.922 545.938ZM776.844 500.469C773.344 500.469 770.406 501.75 768.031 504.312C765.656 506.844 764.188 510.406 763.625 515H789.031V514.344C788.781 509.938 787.594 506.531 785.469 504.125C783.344 501.688 780.469 500.469 776.844 500.469ZM837.312 531.547C837.312 529.203 836.422 527.391 834.641 526.109C832.891 524.797 829.812 523.672 825.406 522.734C821.031 521.797 817.547 520.672 814.953 519.359C812.391 518.047 810.484 516.484 809.234 514.672C808.016 512.859 807.406 510.703 807.406 508.203C807.406 504.047 809.156 500.531 812.656 497.656C816.188 494.781 820.688 493.344 826.156 493.344C831.906 493.344 836.562 494.828 840.125 497.797C843.719 500.766 845.516 504.562 845.516 509.188H836.797C836.797 506.812 835.781 504.766 833.75 503.047C831.75 501.328 829.219 500.469 826.156 500.469C823 500.469 820.531 501.156 818.75 502.531C816.969 503.906 816.078 505.703 816.078 507.922C816.078 510.016 816.906 511.594 818.562 512.656C820.219 513.719 823.203 514.734 827.516 515.703C831.859 516.672 835.375 517.828 838.062 519.172C840.75 520.516 842.734 522.141 844.016 524.047C845.328 525.922 845.984 528.219 845.984 530.938C845.984 535.469 844.172 539.109 840.547 541.859C836.922 544.578 832.219 545.938 826.438 545.938C822.375 545.938 818.781 545.219 815.656 543.781C812.531 542.344 810.078 540.344 808.297 537.781C806.547 535.188 805.672 532.391 805.672 529.391H814.344C814.5 532.297 815.656 534.609 817.812 536.328C820 538.016 822.875 538.859 826.438 538.859C829.719 538.859 832.344 538.203 834.312 536.891C836.312 535.547 837.312 533.766 837.312 531.547ZM934.906 545H925.859L891.5 492.406V545H882.453V476.75H891.5L925.953 529.578V476.75H934.906V545ZM947.234 519.172C947.234 514.203 948.203 509.734 950.141 505.766C952.109 501.797 954.828 498.734 958.297 496.578C961.797 494.422 965.781 493.344 970.25 493.344C977.156 493.344 982.734 495.734 986.984 500.516C991.266 505.297 993.406 511.656 993.406 519.594V520.203C993.406 525.141 992.453 529.578 990.547 533.516C988.672 537.422 985.969 540.469 982.438 542.656C978.938 544.844 974.906 545.938 970.344 545.938C963.469 545.938 957.891 543.547 953.609 538.766C949.359 533.984 947.234 527.656 947.234 519.781V519.172ZM955.953 520.203C955.953 525.828 957.25 530.344 959.844 533.75C962.469 537.156 965.969 538.859 970.344 538.859C974.75 538.859 978.25 537.141 980.844 533.703C983.438 530.234 984.734 525.391 984.734 519.172C984.734 513.609 983.406 509.109 980.75 505.672C978.125 502.203 974.625 500.469 970.25 500.469C965.969 500.469 962.516 502.172 959.891 505.578C957.266 508.984 955.953 513.859 955.953 520.203ZM1016.05 482V494.281H1025.52V500.984H1016.05V532.438C1016.05 534.469 1016.47 536 1017.31 537.031C1018.16 538.031 1019.59 538.531 1021.62 538.531C1022.62 538.531 1024 538.344 1025.75 537.969V545C1023.47 545.625 1021.25 545.938 1019.09 545.938C1015.22 545.938 1012.3 544.766 1010.33 542.422C1008.36 540.078 1007.38 536.75 1007.38 532.438V500.984H998.141V494.281H1007.38V482H1016.05ZM1099.44 513.453H1069.86V537.641H1104.22V545H1060.86V476.75H1103.75V484.156H1069.86V506.094H1099.44V513.453ZM1131.08 512.797L1142.33 494.281H1152.45L1135.86 519.359L1152.97 545H1142.94L1131.22 526.016L1119.5 545H1109.42L1126.53 519.359L1109.94 494.281H1119.97L1131.08 512.797ZM1171.11 545H1162.44V494.281H1171.11V545ZM1161.73 480.828C1161.73 479.422 1162.16 478.234 1163 477.266C1163.88 476.297 1165.16 475.812 1166.84 475.812C1168.53 475.812 1169.81 476.297 1170.69 477.266C1171.56 478.234 1172 479.422 1172 480.828C1172 482.234 1171.56 483.406 1170.69 484.344C1169.81 485.281 1168.53 485.75 1166.84 485.75C1165.16 485.75 1163.88 485.281 1163 484.344C1162.16 483.406 1161.73 482.234 1161.73 480.828ZM1214.56 531.547C1214.56 529.203 1213.67 527.391 1211.89 526.109C1210.14 524.797 1207.06 523.672 1202.66 522.734C1198.28 521.797 1194.8 520.672 1192.2 519.359C1189.64 518.047 1187.73 516.484 1186.48 514.672C1185.27 512.859 1184.66 510.703 1184.66 508.203C1184.66 504.047 1186.41 500.531 1189.91 497.656C1193.44 494.781 1197.94 493.344 1203.41 493.344C1209.16 493.344 1213.81 494.828 1217.38 497.797C1220.97 500.766 1222.77 504.562 1222.77 509.188H1214.05C1214.05 506.812 1213.03 504.766 1211 503.047C1209 501.328 1206.47 500.469 1203.41 500.469C1200.25 500.469 1197.78 501.156 1196 502.531C1194.22 503.906 1193.33 505.703 1193.33 507.922C1193.33 510.016 1194.16 511.594 1195.81 512.656C1197.47 513.719 1200.45 514.734 1204.77 515.703C1209.11 516.672 1212.62 517.828 1215.31 519.172C1218 520.516 1219.98 522.141 1221.27 524.047C1222.58 525.922 1223.23 528.219 1223.23 530.938C1223.23 535.469 1221.42 539.109 1217.8 541.859C1214.17 544.578 1209.47 545.938 1203.69 545.938C1199.62 545.938 1196.03 545.219 1192.91 543.781C1189.78 542.344 1187.33 540.344 1185.55 537.781C1183.8 535.188 1182.92 532.391 1182.92 529.391H1191.59C1191.75 532.297 1192.91 534.609 1195.06 536.328C1197.25 538.016 1200.12 538.859 1203.69 538.859C1206.97 538.859 1209.59 538.203 1211.56 536.891C1213.56 535.547 1214.56 533.766 1214.56 531.547ZM1246.3 482V494.281H1255.77V500.984H1246.3V532.438C1246.3 534.469 1246.72 536 1247.56 537.031C1248.41 538.031 1249.84 538.531 1251.88 538.531C1252.88 538.531 1254.25 538.344 1256 537.969V545C1253.72 545.625 1251.5 545.938 1249.34 545.938C1245.47 545.938 1242.55 544.766 1240.58 542.422C1238.61 540.078 1237.62 536.75 1237.62 532.438V500.984H1228.39V494.281H1237.62V482H1246.3ZM1295.47 531.547C1295.47 529.203 1294.58 527.391 1292.8 526.109C1291.05 524.797 1287.97 523.672 1283.56 522.734C1279.19 521.797 1275.7 520.672 1273.11 519.359C1270.55 518.047 1268.64 516.484 1267.39 514.672C1266.17 512.859 1265.56 510.703 1265.56 508.203C1265.56 504.047 1267.31 500.531 1270.81 497.656C1274.34 494.781 1278.84 493.344 1284.31 493.344C1290.06 493.344 1294.72 494.828 1298.28 497.797C1301.88 500.766 1303.67 504.562 1303.67 509.188H1294.95C1294.95 506.812 1293.94 504.766 1291.91 503.047C1289.91 501.328 1287.38 500.469 1284.31 500.469C1281.16 500.469 1278.69 501.156 1276.91 502.531C1275.12 503.906 1274.23 505.703 1274.23 507.922C1274.23 510.016 1275.06 511.594 1276.72 512.656C1278.38 513.719 1281.36 514.734 1285.67 515.703C1290.02 516.672 1293.53 517.828 1296.22 519.172C1298.91 520.516 1300.89 522.141 1302.17 524.047C1303.48 525.922 1304.14 528.219 1304.14 530.938C1304.14 535.469 1302.33 539.109 1298.7 541.859C1295.08 544.578 1290.38 545.938 1284.59 545.938C1280.53 545.938 1276.94 545.219 1273.81 543.781C1270.69 542.344 1268.23 540.344 1266.45 537.781C1264.7 535.188 1263.83 532.391 1263.83 529.391H1272.5C1272.66 532.297 1273.81 534.609 1275.97 536.328C1278.16 538.016 1281.03 538.859 1284.59 538.859C1287.88 538.859 1290.5 538.203 1292.47 536.891C1294.47 535.547 1295.47 533.766 1295.47 531.547Z" fill="white"/>
<path d="M159.031 514.578L159.309 513.618L159.308 513.617L159.031 514.578ZM142.156 506.422L141.476 507.155L141.483 507.161L142.156 506.422ZM143.328 481.109L143.961 481.884L143.962 481.883L143.328 481.109ZM172.625 478.531L172.181 479.427L172.184 479.429L172.625 478.531ZM181.156 486.031L180.309 486.563L180.313 486.569L181.156 486.031ZM184.203 496.484V497.484H185.203V496.484H184.203ZM175.156 496.484H174.156V497.484H175.156V496.484ZM171.219 486.781L170.548 487.523L170.553 487.527L171.219 486.781ZM149.703 486.172L150.321 486.959L150.322 486.958L149.703 486.172ZM149.516 501.359L148.878 502.13L148.884 502.135L148.89 502.139L149.516 501.359ZM161.562 506.609L161.291 507.572L161.293 507.572L161.562 506.609ZM174.875 511.906L174.356 512.761L174.365 512.767L174.875 511.906ZM182 518.609L181.142 519.122L181.146 519.13L182 518.609ZM177.875 540.969L178.484 541.762L178.488 541.759L177.875 540.969ZM147.453 543.266L147.046 544.179L147.052 544.181L147.453 543.266ZM138.031 535.859L137.212 536.433L137.216 536.438L138.031 535.859ZM134.75 525.219V524.219H133.75V525.219H134.75ZM143.797 525.219H144.797V524.219H143.797V525.219ZM148.344 535.016L147.722 535.799L147.731 535.806L148.344 535.016ZM171.781 520.016L171.163 520.802L171.17 520.807L171.781 520.016ZM159.308 513.617C151.649 511.416 146.195 508.75 142.83 505.683L141.483 507.161C145.18 510.531 150.976 513.303 158.755 515.539L159.308 513.617ZM142.837 505.689C139.539 502.627 137.906 498.892 137.906 494.422H135.906C135.906 499.452 137.773 503.717 141.476 507.155L142.837 505.689ZM137.906 494.422C137.906 489.357 139.904 485.2 143.961 481.884L142.695 480.335C138.189 484.019 135.906 488.737 135.906 494.422H137.906ZM143.962 481.883C148.057 478.53 153.41 476.812 160.109 476.812V474.812C153.059 474.812 147.225 476.626 142.695 480.336L143.962 481.883ZM160.109 476.812C164.666 476.812 168.682 477.693 172.181 479.427L173.069 477.635C169.256 475.745 164.928 474.812 160.109 474.812V476.812ZM172.184 479.429C175.721 481.167 178.417 483.547 180.309 486.563L182.003 485.5C179.896 482.141 176.904 479.52 173.066 477.634L172.184 479.429ZM180.313 486.569C182.242 489.596 183.203 492.893 183.203 496.484H185.203C185.203 492.513 184.133 488.842 182 485.494L180.313 486.569ZM184.203 495.484H175.156V497.484H184.203V495.484ZM176.156 496.484C176.156 492.128 174.759 488.602 171.885 486.035L170.553 487.527C172.928 489.648 174.156 492.59 174.156 496.484H176.156ZM171.89 486.04C169.025 483.447 165.05 482.219 160.109 482.219V484.219C164.731 484.219 168.163 485.365 170.548 487.523L171.89 486.04ZM160.109 482.219C155.534 482.219 151.819 483.233 149.084 485.386L150.322 486.958C152.588 485.173 155.809 484.219 160.109 484.219V482.219ZM149.086 485.385C146.348 487.534 145 490.542 145 494.281H147C147 491.083 148.121 488.685 150.321 486.959L149.086 485.385ZM145 494.281C145 497.391 146.329 500.023 148.878 502.13L150.153 500.589C148.014 498.821 147 496.734 147 494.281H145ZM148.89 502.139C151.427 504.176 155.604 505.969 161.291 507.572L161.834 505.647C156.209 504.062 152.354 502.355 150.142 500.58L148.89 502.139ZM161.293 507.572C166.937 509.154 171.278 510.89 174.356 512.761L175.394 511.052C172.097 509.048 167.563 507.252 161.832 505.646L161.293 507.572ZM174.365 512.767C177.476 514.609 179.715 516.735 181.142 519.122L182.858 518.096C181.223 515.359 178.711 513.016 175.385 511.046L174.365 512.767ZM181.146 519.13C182.599 521.513 183.344 524.342 183.344 527.656H185.344C185.344 524.033 184.526 520.831 182.854 518.089L181.146 519.13ZM183.344 527.656C183.344 532.883 181.327 537.027 177.262 540.178L178.488 541.759C183.048 538.223 185.344 533.492 185.344 527.656H183.344ZM177.266 540.176C173.178 543.316 167.649 544.938 160.578 544.938V546.938C167.945 546.938 173.947 545.247 178.484 541.762L177.266 540.176ZM160.578 544.938C156.021 544.938 151.783 544.072 147.855 542.35L147.052 544.181C151.248 546.021 155.76 546.938 160.578 546.938V544.938ZM147.861 542.352C143.935 540.601 140.946 538.237 138.847 535.28L137.216 536.438C139.554 539.731 142.846 542.305 147.046 544.179L147.861 542.352ZM138.85 535.286C136.786 532.336 135.75 528.991 135.75 525.219H133.75C133.75 529.384 134.902 533.133 137.212 536.433L138.85 535.286ZM134.75 526.219H143.797V524.219H134.75V526.219ZM142.797 525.219C142.797 529.626 144.434 533.189 147.722 535.799L148.965 534.232C146.191 532.03 144.797 529.062 144.797 525.219H142.797ZM147.731 535.806C151.017 538.354 155.332 539.578 160.578 539.578V537.578C155.636 537.578 151.796 536.427 148.957 534.225L147.731 535.806ZM160.578 539.578C165.445 539.578 169.335 538.588 172.108 536.466L170.892 534.878C168.602 536.63 165.211 537.578 160.578 537.578V539.578ZM172.108 536.466C174.9 534.329 176.297 531.387 176.297 527.75H174.297C174.297 530.8 173.162 533.14 170.892 534.878L172.108 536.466ZM176.297 527.75C176.297 524.142 175.015 521.253 172.393 519.225L171.17 520.807C173.235 522.404 174.297 524.67 174.297 527.75H176.297ZM172.4 519.23C169.893 517.258 165.48 515.403 159.309 513.618L158.753 515.539C164.895 517.316 168.982 519.086 171.163 520.802L172.4 519.23ZM195.172 505.766L194.276 505.321L194.273 505.327L195.172 505.766ZM203.328 496.578L202.804 495.727L202.8 495.729L203.328 496.578ZM232.016 500.516L231.268 501.18L231.271 501.183L232.016 500.516ZM235.578 533.516L234.678 533.08L234.677 533.083L235.578 533.516ZM227.469 542.656L226.942 541.806L226.939 541.808L227.469 542.656ZM198.641 538.766L197.893 539.43L197.896 539.433L198.641 538.766ZM204.875 533.75L204.079 534.356L204.083 534.36L204.875 533.75ZM225.875 533.703L226.673 534.305L226.676 534.302L225.875 533.703ZM225.781 505.672L224.984 506.275L224.99 506.283L225.781 505.672ZM193.266 519.172C193.266 514.336 194.208 510.02 196.071 506.204L194.273 505.327C192.261 509.449 191.266 514.07 191.266 519.172H193.266ZM196.068 506.21C197.961 502.393 200.559 499.477 203.856 497.427L202.8 495.729C199.16 497.992 196.32 501.201 194.276 505.321L196.068 506.21ZM203.853 497.43C207.181 495.379 210.981 494.344 215.281 494.344V492.344C210.644 492.344 206.475 493.465 202.804 495.727L203.853 497.43ZM215.281 494.344C221.927 494.344 227.224 496.631 231.268 501.18L232.763 499.851C228.307 494.838 222.448 492.344 215.281 492.344V494.344ZM231.271 501.183C235.351 505.74 237.438 511.842 237.438 519.594H239.438C239.438 511.471 237.243 504.854 232.761 499.849L231.271 501.183ZM237.438 519.594V520.203H239.438V519.594H237.438ZM237.438 520.203C237.438 525.009 236.511 529.295 234.678 533.08L236.478 533.951C238.458 529.861 239.438 525.272 239.438 520.203H237.438ZM234.677 533.083C232.88 536.825 230.304 539.724 226.942 541.806L227.995 543.506C231.696 541.214 234.526 538.019 236.48 533.948L234.677 533.083ZM226.939 541.808C223.614 543.886 219.77 544.938 215.375 544.938V546.938C220.105 546.938 224.323 545.801 227.999 543.504L226.939 541.808ZM215.375 544.938C208.762 544.938 203.462 542.652 199.386 538.099L197.896 539.433C202.381 544.442 208.238 546.938 215.375 546.938V544.938ZM199.388 538.101C195.336 533.543 193.266 527.47 193.266 519.781H191.266C191.266 527.842 193.445 534.426 197.893 539.43L199.388 538.101ZM193.266 519.781V519.172H191.266V519.781H193.266ZM199.984 520.203C199.984 525.978 201.317 530.728 204.079 534.356L205.671 533.144C203.246 529.96 201.984 525.678 201.984 520.203H199.984ZM204.083 534.36C206.901 538.017 210.696 539.859 215.375 539.859V537.859C211.304 537.859 208.099 536.295 205.667 533.14L204.083 534.36ZM215.375 539.859C220.086 539.859 223.885 538 226.673 534.305L225.077 533.101C222.677 536.281 219.476 537.859 215.375 537.859V539.859ZM226.676 534.302C229.444 530.599 230.766 525.516 230.766 519.172H228.766C228.766 525.266 227.493 529.869 225.074 533.104L226.676 534.302ZM230.766 519.172C230.766 513.451 229.398 508.717 226.573 505.06L224.99 506.283C227.477 509.502 228.766 513.768 228.766 519.172H230.766ZM226.579 505.068C223.763 501.348 219.967 499.469 215.281 499.469V501.469C219.345 501.469 222.549 503.058 224.984 506.275L226.579 505.068ZM215.281 499.469C210.688 499.469 206.943 501.317 204.13 504.968L205.714 506.189C208.151 503.027 211.312 501.469 215.281 501.469V499.469ZM204.13 504.968C201.319 508.615 199.984 513.739 199.984 520.203H201.984C201.984 513.98 203.274 509.354 205.714 506.189L204.13 504.968ZM273.828 502.062L273.664 503.049L274.828 503.243V502.062H273.828ZM257.984 509L257.062 508.613L256.984 508.799V509H257.984ZM257.984 545V546H258.984V545H257.984ZM249.312 545H248.312V546H249.312V545ZM249.312 494.281V493.281H248.312V494.281H249.312ZM257.75 494.281L258.75 494.257L258.726 493.281H257.75V494.281ZM257.891 500.141L256.891 500.165L256.971 503.488L258.738 500.672L257.891 500.141ZM273.828 494H274.828V493.382L274.275 493.106L273.828 494ZM273.993 501.076C272.618 500.847 271.141 500.734 269.562 500.734V502.734C271.047 502.734 272.413 502.84 273.664 503.049L273.993 501.076ZM269.562 500.734C266.577 500.734 263.995 501.371 261.871 502.704C259.741 504.04 258.145 506.031 257.062 508.613L258.907 509.387C259.855 507.125 261.204 505.483 262.934 504.398C264.669 503.309 266.86 502.734 269.562 502.734V500.734ZM256.984 509V545H258.984V509H256.984ZM257.984 544H249.312V546H257.984V544ZM250.312 545V494.281H248.312V545H250.312ZM249.312 495.281H257.75V493.281H249.312V495.281ZM256.75 494.305L256.891 500.165L258.89 500.117L258.75 494.257L256.75 494.305ZM258.738 500.672C261.404 496.424 265.12 494.344 269.984 494.344V492.344C264.411 492.344 260.065 494.795 257.044 499.609L258.738 500.672ZM269.984 494.344C271.614 494.344 272.711 494.56 273.381 494.894L274.275 493.106C273.195 492.565 271.73 492.344 269.984 492.344V494.344ZM272.828 494V502.062H274.828V494H272.828ZM306.359 502.062L306.195 503.049L307.359 503.243V502.062H306.359ZM290.516 509L289.593 508.613L289.516 508.799V509H290.516ZM290.516 545V546H291.516V545H290.516ZM281.844 545H280.844V546H281.844V545ZM281.844 494.281V493.281H280.844V494.281H281.844ZM290.281 494.281L291.281 494.257L291.258 493.281H290.281V494.281ZM290.422 500.141L289.422 500.165L289.502 503.488L291.269 500.672L290.422 500.141ZM306.359 494H307.359V493.382L306.807 493.106L306.359 494ZM306.524 501.076C305.15 500.847 303.672 500.734 302.094 500.734V502.734C303.578 502.734 304.944 502.84 306.195 503.049L306.524 501.076ZM302.094 500.734C299.108 500.734 296.526 501.371 294.402 502.704C292.272 504.04 290.676 506.031 289.593 508.613L291.438 509.387C292.386 507.125 293.736 505.483 295.465 504.398C297.2 503.309 299.392 502.734 302.094 502.734V500.734ZM289.516 509V545H291.516V509H289.516ZM290.516 544H281.844V546H290.516V544ZM282.844 545V494.281H280.844V545H282.844ZM281.844 495.281H290.281V493.281H281.844V495.281ZM289.282 494.305L289.422 500.165L291.422 500.117L291.281 494.257L289.282 494.305ZM291.269 500.672C293.935 496.424 297.651 494.344 302.516 494.344V492.344C296.942 492.344 292.596 494.795 289.575 499.609L291.269 500.672ZM302.516 494.344C304.145 494.344 305.243 494.56 305.912 494.894L306.807 493.106C305.726 492.565 304.261 492.344 302.516 492.344V494.344ZM305.359 494V502.062H307.359V494H305.359ZM331.812 532.297L330.864 532.613L331.845 535.561L332.767 532.594L331.812 532.297ZM343.625 494.281V493.281H342.889L342.67 493.985L343.625 494.281ZM352.906 494.281L353.851 494.61L354.313 493.281H352.906V494.281ZM332.516 552.828L333.452 553.178L333.456 553.168L333.46 553.157L332.516 552.828ZM317.469 565.484L317.383 566.481L317.426 566.484H317.469V565.484ZM315.828 565.344L315.643 566.326L315.693 566.336L315.743 566.34L315.828 565.344ZM312.594 564.734H311.594V565.564L312.409 565.717L312.594 564.734ZM312.594 557.703L312.673 556.706L311.594 556.62V557.703H312.594ZM314.938 557.891L314.858 558.887L314.898 558.891H314.938V557.891ZM321.781 556.109L321.199 555.297L321.191 555.302L321.781 556.109ZM325.859 549.594L324.922 549.244L324.917 549.26L324.912 549.275L325.859 549.594ZM327.781 544.438L328.718 544.787L328.846 544.443L328.722 544.098L327.781 544.438ZM309.688 494.281V493.281H308.264L308.747 494.621L309.688 494.281ZM319.156 494.281L320.105 493.965L319.877 493.281H319.156V494.281ZM332.767 532.594L344.58 494.578L342.67 493.985L330.858 532L332.767 532.594ZM343.625 495.281H352.906V493.281H343.625V495.281ZM351.962 493.952L331.571 552.499L333.46 553.157L353.851 494.61L351.962 493.952ZM331.579 552.478C330.04 556.593 328.079 559.59 325.743 561.555C323.425 563.505 320.683 564.484 317.469 564.484V566.484C321.129 566.484 324.333 565.354 327.03 563.086C329.71 560.832 331.835 557.501 333.452 553.178L331.579 552.478ZM317.554 564.488L315.914 564.347L315.743 566.34L317.383 566.481L317.554 564.488ZM316.013 564.361L312.779 563.752L312.409 565.717L315.643 566.326L316.013 564.361ZM313.594 564.734V557.703H311.594V564.734H313.594ZM312.514 558.7L314.858 558.887L315.017 556.894L312.673 556.706L312.514 558.7ZM314.938 558.891C317.994 558.891 320.512 558.275 322.371 556.917L321.191 555.302C319.8 556.319 317.756 556.891 314.938 556.891V558.891ZM322.364 556.922C324.268 555.557 325.716 553.153 326.807 549.913L324.912 549.275C323.877 552.347 322.607 554.287 321.199 555.297L322.364 556.922ZM326.796 549.943L328.718 544.787L326.844 544.088L324.922 549.244L326.796 549.943ZM328.722 544.098L310.628 493.942L308.747 494.621L326.841 544.777L328.722 544.098ZM309.688 495.281H319.156V493.281H309.688V495.281ZM318.207 494.597L330.864 532.613L332.761 531.981L320.105 493.965L318.207 494.597ZM355.344 558.594L354.778 559.418L355.395 559.841L355.975 559.37L355.344 558.594ZM350.422 555.219L349.609 554.636L349.014 555.466L349.856 556.043L350.422 555.219ZM355.016 542.562L356.015 542.591L356.016 542.577V542.562H355.016ZM355.016 534.734V533.734H354.016V534.734H355.016ZM363.5 534.734H364.5V533.734H363.5V534.734ZM361.156 551L360.26 550.556L360.257 550.564L361.156 551ZM355.909 557.769L350.987 554.394L349.856 556.043L354.778 559.418L355.909 557.769ZM351.234 555.802C354.269 551.573 355.884 547.165 356.015 542.591L354.016 542.534C353.898 546.648 352.45 550.677 349.609 554.636L351.234 555.802ZM356.016 542.562V534.734H354.016V542.562H356.016ZM355.016 535.734H363.5V533.734H355.016V535.734ZM362.5 534.734V541.531H364.5V534.734H362.5ZM362.5 541.531C362.5 544.517 361.762 547.522 360.26 550.556L362.052 551.444C363.675 548.166 364.5 544.858 364.5 541.531H362.5ZM360.257 550.564C358.779 553.609 356.926 556.018 354.713 557.818L355.975 559.37C358.449 557.357 360.471 554.703 362.056 551.436L360.257 550.564ZM408.641 518.281V517.281H407.641V518.281H408.641ZM408.641 545V546H409.641V545H408.641ZM399.641 545H398.641V546H399.641V545ZM399.641 476.75V475.75H398.641V476.75H399.641ZM442.344 482.469L441.673 483.211L441.676 483.213L442.344 482.469ZM442.484 512.938L443.138 513.694L443.138 513.694L442.484 512.938ZM408.641 510.922H407.641V511.922H408.641V510.922ZM435.875 507.547L436.535 508.298L436.54 508.294L435.875 507.547ZM425.328 484.156L425.349 483.156L425.339 483.156H425.328V484.156ZM408.641 484.156V483.156H407.641V484.156H408.641ZM407.641 518.281V545H409.641V518.281H407.641ZM408.641 544H399.641V546H408.641V544ZM400.641 545V476.75H398.641V545H400.641ZM399.641 477.75H424.812V475.75H399.641V477.75ZM424.812 477.75C432.113 477.75 437.69 479.611 441.673 483.211L443.014 481.727C438.56 477.702 432.45 475.75 424.812 475.75V477.75ZM441.676 483.213C445.692 486.816 447.719 491.58 447.719 497.609H449.719C449.719 491.076 447.496 485.747 443.012 481.724L441.676 483.213ZM447.719 497.609C447.719 504.009 445.722 508.816 441.83 512.181L443.138 513.694C447.559 509.871 449.719 504.459 449.719 497.609H447.719ZM441.831 512.181C437.95 515.532 432.296 517.281 424.719 517.281V519.281C432.579 519.281 438.768 517.468 443.138 513.694L441.831 512.181ZM424.719 517.281H408.641V519.281H424.719V517.281ZM408.641 511.922H424.812V509.922H408.641V511.922ZM424.812 511.922C429.769 511.922 433.727 510.764 436.535 508.298L435.215 506.795C432.898 508.83 429.481 509.922 424.812 509.922V511.922ZM436.54 508.294C439.367 505.777 440.719 502.194 440.719 497.703H438.719C438.719 501.775 437.508 504.754 435.21 506.8L436.54 508.294ZM440.719 497.703C440.719 493.411 439.355 489.883 436.564 487.229L435.186 488.678C437.52 490.898 438.719 493.87 438.719 497.703H440.719ZM436.564 487.229C433.777 484.577 429.999 483.254 425.349 483.156L425.307 485.156C429.595 485.246 432.848 486.454 435.186 488.678L436.564 487.229ZM425.328 483.156H408.641V485.156H425.328V483.156ZM407.641 484.156V510.922H409.641V484.156H407.641ZM489.594 545L488.699 545.447L488.976 546H489.594V545ZM488.375 539.656L489.368 539.535L489.113 537.448L487.655 538.963L488.375 539.656ZM461.609 541.719L460.944 542.465L460.951 542.472L461.609 541.719ZM462.828 518.656L463.416 519.465L463.417 519.464L462.828 518.656ZM488.234 514.25V515.25H489.234V514.25H488.234ZM485.516 503.047L484.808 503.754L484.815 503.76L485.516 503.047ZM466.578 508.344V509.344H467.578V508.344H466.578ZM457.859 508.344H456.859V509.344H457.859V508.344ZM460.531 501.031L459.736 500.425L459.735 500.426L460.531 501.031ZM467.844 495.406L467.438 494.492L467.434 494.494L467.844 495.406ZM491.75 497.75L491.087 498.498L491.09 498.502L491.75 497.75ZM496.906 509.797H497.906V509.785L497.906 509.772L496.906 509.797ZM498.688 544.25H499.688V544.043L499.606 543.854L498.688 544.25ZM498.688 545V546H499.688V545H498.688ZM488.234 530.797L489.134 531.234L489.234 531.027V530.797H488.234ZM488.234 520.391H489.234V519.391H488.234V520.391ZM490.488 544.553C490.072 543.721 489.68 542.094 489.368 539.535L487.382 539.777C487.695 542.344 488.115 544.279 488.699 545.447L490.488 544.553ZM487.655 538.963C483.804 542.963 479.248 544.938 473.938 544.938V546.938C479.815 546.938 484.884 544.725 489.095 540.35L487.655 538.963ZM473.938 544.938C469.136 544.938 465.274 543.593 462.267 540.966L460.951 542.472C464.383 545.47 468.739 546.938 473.938 546.938V544.938ZM462.275 540.973C459.304 538.322 457.828 535.002 457.828 530.938H455.828C455.828 535.561 457.539 539.428 460.944 542.465L462.275 540.973ZM457.828 530.938C457.828 525.951 459.695 522.169 463.416 519.465L462.24 517.847C457.961 520.956 455.828 525.362 455.828 530.938H457.828ZM463.417 519.464C467.215 516.697 472.634 515.25 479.797 515.25V513.25C472.397 513.25 466.504 514.74 462.239 517.848L463.417 519.464ZM479.797 515.25H488.234V513.25H479.797V515.25ZM489.234 514.25V510.266H487.234V514.25H489.234ZM489.234 510.266C489.234 507.022 488.257 504.339 486.217 502.334L484.815 503.76C486.4 505.318 487.234 507.447 487.234 510.266H489.234ZM486.223 502.34C484.161 500.278 481.194 499.328 477.5 499.328V501.328C480.868 501.328 483.245 502.191 484.809 503.754L486.223 502.34ZM477.5 499.328C474.232 499.328 471.417 500.156 469.121 501.87L470.317 503.473C472.208 502.062 474.581 501.328 477.5 501.328V499.328ZM469.121 501.87C466.825 503.584 465.578 505.751 465.578 508.344H467.578C467.578 506.499 468.425 504.885 470.317 503.473L469.121 501.87ZM466.578 507.344H457.859V509.344H466.578V507.344ZM458.859 508.344C458.859 506.065 459.656 503.836 461.327 501.636L459.735 500.426C457.844 502.914 456.859 505.56 456.859 508.344H458.859ZM461.326 501.638C463.026 499.411 465.324 497.634 468.253 496.319L467.434 494.494C464.239 495.929 461.662 497.902 459.736 500.425L461.326 501.638ZM468.25 496.32C471.205 495.007 474.455 494.344 478.016 494.344V492.344C474.201 492.344 470.67 493.056 467.438 494.492L468.25 496.32ZM478.016 494.344C483.695 494.344 488.009 495.769 491.087 498.498L492.413 497.002C488.866 493.856 484.024 492.344 478.016 492.344V494.344ZM491.09 498.502C494.158 501.193 495.787 504.926 495.907 509.821L497.906 509.772C497.775 504.418 495.967 500.119 492.41 496.998L491.09 498.502ZM495.906 509.797V533.141H497.906V509.797H495.906ZM495.906 533.141C495.906 537.866 496.506 541.721 497.769 544.646L499.606 543.854C498.494 541.279 497.906 537.728 497.906 533.141H495.906ZM497.688 544.25V545H499.688V544.25H497.688ZM498.688 544H489.594V546H498.688V544ZM475.203 539.391C478.104 539.391 480.853 538.638 483.437 537.147L482.438 535.415C480.147 536.737 477.74 537.391 475.203 537.391V539.391ZM483.437 537.147C486.025 535.654 487.942 533.686 489.134 531.234L487.335 530.36C486.339 532.408 484.725 534.096 482.438 535.415L483.437 537.147ZM489.234 530.797V520.391H487.234V530.797H489.234ZM488.234 519.391H481.438V521.391H488.234V519.391ZM481.438 519.391C476.06 519.391 471.863 520.172 468.979 521.86C466.013 523.596 464.5 526.259 464.5 529.719H466.5C466.5 526.96 467.644 524.959 469.99 523.586C472.418 522.164 476.19 521.391 481.438 521.391V519.391ZM464.5 529.719C464.5 532.684 465.502 535.107 467.573 536.858L468.864 535.33C467.311 534.018 466.5 532.191 466.5 529.719H464.5ZM467.573 536.858C469.601 538.57 472.172 539.391 475.203 539.391V537.391C472.547 537.391 470.462 536.68 468.864 535.33L467.573 536.858ZM513.922 500.375L514.708 500.993L514.71 500.99L513.922 500.375ZM542.938 499.906L542.154 500.528L543.743 502.532L543.935 499.981L542.938 499.906ZM543.359 494.281V493.281H542.432L542.362 494.206L543.359 494.281ZM551.281 494.281H552.281V493.281H551.281V494.281ZM545.422 559.297L544.726 558.578L544.723 558.581L545.422 559.297ZM511.016 556.203L510.259 555.549L509.757 556.129L510.188 556.764L511.016 556.203ZM515.516 551L516.293 550.371L515.541 549.442L514.759 550.346L515.516 551ZM539 554.328L538.293 553.621L538.288 553.626L539 554.328ZM542.562 539.938H543.562V537.258L541.807 539.282L542.562 539.938ZM513.922 538.766L513.128 539.373L513.13 539.376L513.922 538.766ZM520.672 533.703L519.858 534.284L519.861 534.288L520.672 533.703ZM542.562 531.125L543.451 531.583L543.562 531.368V531.125H542.562ZM542.562 507.969H543.562V507.713L543.439 507.488L542.562 507.969ZM509.438 519.219C509.438 511.461 511.231 505.422 514.708 500.993L513.135 499.757C509.301 504.641 507.438 511.164 507.438 519.219H509.438ZM514.71 500.99C518.174 496.55 522.725 494.344 528.453 494.344V492.344C522.119 492.344 516.982 494.825 513.133 499.76L514.71 500.99ZM528.453 494.344C534.373 494.344 538.897 496.42 542.154 500.528L543.721 499.285C540.04 494.643 534.908 492.344 528.453 492.344V494.344ZM543.935 499.981L544.357 494.356L542.362 494.206L541.94 499.831L543.935 499.981ZM543.359 495.281H551.281V493.281H543.359V495.281ZM550.281 494.281V543.781H552.281V494.281H550.281ZM550.281 543.781C550.281 550.133 548.399 555.024 544.726 558.578L546.117 560.015C550.258 556.008 552.281 550.554 552.281 543.781H550.281ZM544.723 558.581C541.074 562.143 536.126 563.969 529.766 563.969V565.969C536.53 565.969 542.02 564.013 546.12 560.013L544.723 558.581ZM529.766 563.969C526.257 563.969 522.817 563.22 519.439 561.712L518.624 563.538C522.246 565.155 525.962 565.969 529.766 565.969V563.969ZM519.439 561.712C516.08 560.212 513.566 558.182 511.843 555.642L510.188 556.764C512.153 559.661 514.982 561.913 518.624 563.538L519.439 561.712ZM511.772 556.857L516.272 551.654L514.759 550.346L510.259 555.549L511.772 556.857ZM514.738 551.629C518.625 556.431 523.447 558.891 529.156 558.891V556.891C524.116 556.891 519.843 554.757 516.293 550.371L514.738 551.629ZM529.156 558.891C533.568 558.891 537.134 557.643 539.712 555.031L538.288 553.626C536.179 555.763 533.182 556.891 529.156 556.891V558.891ZM539.707 555.035C542.319 552.423 543.562 548.796 543.562 544.297H541.562C541.562 548.423 540.431 551.483 538.293 553.621L539.707 555.035ZM543.562 544.297V539.938H541.562V544.297H543.562ZM541.807 539.282C538.555 543.033 534.113 544.938 528.359 544.938V546.938C534.606 546.938 539.633 544.842 543.318 540.593L541.807 539.282ZM528.359 544.938C522.738 544.938 518.216 542.696 514.714 538.155L513.13 539.376C517.003 544.398 522.106 546.938 528.359 546.938V544.938ZM514.716 538.158C511.235 533.606 509.438 527.329 509.438 519.219H507.438C507.438 527.608 509.296 534.363 513.128 539.373L514.716 538.158ZM516.156 520.203C516.156 526.046 517.352 530.776 519.858 534.284L521.486 533.122C519.304 530.068 518.156 525.798 518.156 520.203H516.156ZM519.861 534.288C522.404 537.814 525.996 539.578 530.516 539.578V537.578C526.598 537.578 523.627 536.092 521.483 533.118L519.861 534.288ZM530.516 539.578C533.406 539.578 535.966 538.92 538.155 537.565C540.343 536.211 542.102 534.199 543.451 531.583L541.674 530.667C540.46 533.02 538.93 534.734 537.103 535.864C535.277 536.994 533.094 537.578 530.516 537.578V539.578ZM543.562 531.125V507.969H541.562V531.125H543.562ZM543.439 507.488C542.043 504.941 540.269 502.983 538.101 501.665C535.932 500.346 533.423 499.703 530.609 499.703V501.703C533.109 501.703 535.248 502.271 537.063 503.374C538.879 504.478 540.426 506.153 541.686 508.45L543.439 507.488ZM530.609 499.703C526.086 499.703 522.481 501.485 519.909 505.039L521.529 506.211C523.707 503.202 526.696 501.703 530.609 501.703V499.703ZM519.909 505.039C517.357 508.564 516.156 513.67 516.156 520.203H518.156C518.156 513.861 519.331 509.248 521.529 506.211L519.909 505.039ZM568.672 539.188L567.947 539.877L567.95 539.879L568.672 539.188ZM565.062 506L564.164 505.561L564.162 505.564L565.062 506ZM573.125 496.719L573.667 497.559L573.669 497.558L573.125 496.719ZM605.234 522.125V523.125H606.234V522.125H605.234ZM570.875 522.125V521.125H569.85L569.875 522.15L570.875 522.125ZM575.234 534.266L574.491 534.934L574.498 534.942L575.234 534.266ZM599.281 532.016L599.896 531.227L599.104 530.61L598.49 531.404L599.281 532.016ZM604.578 536.141L605.416 536.686L605.917 535.916L605.193 535.352L604.578 536.141ZM575.562 504.312L576.292 504.997L576.296 504.992L575.562 504.312ZM571.156 515L570.164 514.878L570.026 516H571.156V515ZM596.562 515V516H597.562V515H596.562ZM596.562 514.344H597.562V514.315L597.561 514.287L596.562 514.344ZM593 504.125L592.246 504.782L592.25 504.787L593 504.125ZM585.453 544.938C578.82 544.938 573.497 542.777 569.394 538.496L567.95 539.879C572.471 544.598 578.337 546.938 585.453 546.938V544.938ZM569.396 538.498C565.296 534.19 563.203 528.41 563.203 521.047H561.203C561.203 528.809 563.422 535.122 567.947 539.877L569.396 538.498ZM563.203 521.047V519.453H561.203V521.047H563.203ZM563.203 519.453C563.203 514.55 564.131 510.218 565.963 506.436L564.162 505.564C562.181 509.657 561.203 514.294 561.203 519.453H563.203ZM565.961 506.439C567.825 502.62 570.395 499.671 573.667 497.559L572.583 495.879C568.98 498.204 566.175 501.442 564.164 505.561L565.961 506.439ZM573.669 497.558C576.98 495.41 580.542 494.344 584.375 494.344V492.344C580.145 492.344 576.207 493.528 572.581 495.88L573.669 497.558ZM584.375 494.344C590.727 494.344 595.55 496.423 598.985 500.503L600.515 499.215C596.637 494.608 591.211 492.344 584.375 492.344V494.344ZM598.985 500.503C602.436 504.604 604.234 510.559 604.234 518.516H606.234C606.234 510.285 604.376 503.803 600.515 499.215L598.985 500.503ZM604.234 518.516V522.125H606.234V518.516H604.234ZM605.234 521.125H570.875V523.125H605.234V521.125ZM569.875 522.15C570.005 527.338 571.519 531.629 574.491 534.934L575.978 533.597C573.387 530.715 571.995 526.912 571.875 522.1L569.875 522.15ZM574.498 534.942C577.508 538.219 581.341 539.859 585.922 539.859V537.859C581.878 537.859 578.586 536.437 575.971 533.589L574.498 534.942ZM585.922 539.859C589.12 539.859 591.898 539.206 594.21 537.846L593.196 536.122C591.258 537.263 588.849 537.859 585.922 537.859V539.859ZM594.21 537.846C596.451 536.528 598.405 534.785 600.073 532.627L598.49 531.404C596.97 533.372 595.205 534.941 593.196 536.122L594.21 537.846ZM598.667 532.805L603.964 536.93L605.193 535.352L599.896 531.227L598.667 532.805ZM603.74 535.595C599.694 541.814 593.651 544.938 585.453 544.938V546.938C594.255 546.938 600.963 543.53 605.416 536.686L603.74 535.595ZM584.375 499.469C580.597 499.469 577.394 500.866 574.829 503.633L576.296 504.992C578.481 502.634 581.153 501.469 584.375 501.469V499.469ZM574.833 503.628C572.271 506.359 570.743 510.144 570.164 514.878L572.149 515.122C572.694 510.669 574.104 507.329 576.292 504.997L574.833 503.628ZM571.156 516H596.562V514H571.156V516ZM597.562 515V514.344H595.562V515H597.562ZM597.561 514.287C597.303 509.74 596.07 506.091 593.75 503.463L592.25 504.787C594.18 506.972 595.322 510.135 595.564 514.4L597.561 514.287ZM593.754 503.468C591.415 500.785 588.25 499.469 584.375 499.469V501.469C587.75 501.469 590.335 502.59 592.246 504.782L593.754 503.468ZM640.484 545H639.484V546H640.484V545ZM640.484 476.75V475.75H639.484V476.75H640.484ZM686.047 491.891L685.156 492.345L685.158 492.349L686.047 491.891ZM689.844 508.578H690.844L690.844 508.573L689.844 508.578ZM686.094 529.859L685.205 529.401L685.203 529.405L686.094 529.859ZM675.453 541.016L674.964 540.143L674.961 540.145L675.453 541.016ZM659.375 545V546L659.385 546L659.375 545ZM649.484 484.156V483.156H648.484V484.156H649.484ZM649.484 537.641H648.484V538.641H649.484V537.641ZM675.125 531.172L674.381 530.504L674.378 530.507L675.125 531.172ZM675.453 490.719L674.688 491.362L674.693 491.368L675.453 490.719ZM659.984 484.156L659.994 483.156H659.984V484.156ZM641.484 545V476.75H639.484V545H641.484ZM640.484 477.75H659.75V475.75H640.484V477.75ZM659.75 477.75C665.535 477.75 670.609 479.027 675.001 481.554L675.999 479.821C671.266 477.098 665.84 475.75 659.75 475.75V477.75ZM675.001 481.554C679.39 484.079 682.772 487.668 685.156 492.345L686.938 491.437C684.384 486.426 680.735 482.546 675.999 479.821L675.001 481.554ZM685.158 492.349C687.576 497.033 688.813 502.436 688.844 508.583L690.844 508.573C690.812 502.158 689.518 496.436 686.935 491.432L685.158 492.349ZM688.844 508.578V512.938H690.844V508.578H688.844ZM688.844 512.938C688.844 519.244 687.62 524.722 685.205 529.401L686.982 530.318C689.568 525.309 690.844 519.506 690.844 512.938H688.844ZM685.203 529.405C682.821 534.078 679.412 537.649 674.964 540.143L675.942 541.888C680.744 539.195 684.429 535.328 686.985 530.313L685.203 529.405ZM674.961 540.145C670.537 542.643 665.348 543.939 659.365 544L659.385 546C665.652 545.936 671.182 544.576 675.945 541.886L674.961 540.145ZM659.375 544H640.484V546H659.375V544ZM648.484 484.156V537.641H650.484V484.156H648.484ZM649.484 538.641H658.953V536.641H649.484V538.641ZM658.953 538.641C666.113 538.641 671.8 536.405 675.872 531.837L674.378 530.507C670.762 534.564 665.668 536.641 658.953 536.641V538.641ZM675.869 531.84C679.962 527.285 681.938 520.873 681.938 512.75H679.938C679.938 520.565 678.038 526.434 674.381 530.504L675.869 531.84ZM681.938 512.75V508.766H679.938V512.75H681.938ZM681.938 508.766C681.938 500.867 680.074 494.59 676.214 490.069L674.693 491.368C678.145 495.41 679.938 501.164 679.938 508.766H681.938ZM676.219 490.075C672.37 485.497 666.913 483.221 659.994 483.156L659.975 485.156C666.431 485.217 671.286 487.316 674.688 491.362L676.219 490.075ZM659.984 483.156H649.484V485.156H659.984V483.156ZM702.734 505.766L701.839 505.321L701.836 505.327L702.734 505.766ZM710.891 496.578L710.366 495.727L710.363 495.729L710.891 496.578ZM739.578 500.516L738.831 501.18L738.833 501.183L739.578 500.516ZM743.141 533.516L742.241 533.08L742.239 533.083L743.141 533.516ZM735.031 542.656L734.505 541.806L734.501 541.808L735.031 542.656ZM706.203 538.766L705.456 539.43L705.458 539.433L706.203 538.766ZM712.438 533.75L711.642 534.356L711.645 534.36L712.438 533.75ZM733.438 533.703L734.236 534.305L734.238 534.302L733.438 533.703ZM733.344 505.672L732.546 506.275L732.552 506.283L733.344 505.672ZM700.828 519.172C700.828 514.336 701.77 510.02 703.633 506.204L701.836 505.327C699.824 509.449 698.828 514.07 698.828 519.172H700.828ZM703.63 506.21C705.524 502.393 708.121 499.477 711.419 497.427L710.363 495.729C706.723 497.992 703.883 501.201 701.839 505.321L703.63 506.21ZM711.415 497.43C714.744 495.379 718.544 494.344 722.844 494.344V492.344C718.206 492.344 714.037 493.465 710.366 495.727L711.415 497.43ZM722.844 494.344C729.49 494.344 734.787 496.631 738.831 501.18L740.326 499.851C735.869 494.838 730.01 492.344 722.844 492.344V494.344ZM738.833 501.183C742.914 505.74 745 511.842 745 519.594H747C747 511.471 744.805 504.854 740.323 499.849L738.833 501.183ZM745 519.594V520.203H747V519.594H745ZM745 520.203C745 525.009 744.073 529.295 742.241 533.08L744.041 533.951C746.021 529.861 747 525.272 747 520.203H745ZM742.239 533.083C740.443 536.825 737.866 539.724 734.505 541.806L735.558 543.506C739.259 541.214 742.088 538.019 744.042 533.948L742.239 533.083ZM734.501 541.808C731.177 543.886 727.333 544.938 722.938 544.938V546.938C727.667 546.938 731.886 545.801 735.561 543.504L734.501 541.808ZM722.938 544.938C716.324 544.938 711.025 542.652 706.948 538.099L705.458 539.433C709.944 544.442 715.801 546.938 722.938 546.938V544.938ZM706.951 538.101C702.899 533.543 700.828 527.47 700.828 519.781H698.828C698.828 527.842 701.008 534.426 705.456 539.43L706.951 538.101ZM700.828 519.781V519.172H698.828V519.781H700.828ZM707.547 520.203C707.547 525.978 708.879 530.728 711.642 534.356L713.233 533.144C710.808 529.96 709.547 525.678 709.547 520.203H707.547ZM711.645 534.36C714.464 538.017 718.259 539.859 722.938 539.859V537.859C718.866 537.859 715.661 536.295 713.23 533.14L711.645 534.36ZM722.938 539.859C727.649 539.859 731.448 538 734.236 534.305L732.639 533.101C730.24 536.281 727.039 537.859 722.938 537.859V539.859ZM734.238 534.302C737.007 530.599 738.328 525.516 738.328 519.172H736.328C736.328 525.266 735.056 529.869 732.637 533.104L734.238 534.302ZM738.328 519.172C738.328 513.451 736.961 508.717 734.135 505.06L732.552 506.283C735.039 509.502 736.328 513.768 736.328 519.172H738.328ZM734.141 505.068C731.326 501.348 727.53 499.469 722.844 499.469V501.469C726.908 501.469 730.112 503.058 732.546 506.275L734.141 505.068ZM722.844 499.469C718.251 499.469 714.506 501.317 711.692 504.968L713.276 506.189C715.713 503.027 718.874 501.469 722.844 501.469V499.469ZM711.692 504.968C708.882 508.615 707.547 513.739 707.547 520.203H709.547C709.547 513.98 710.837 509.354 713.276 506.189L711.692 504.968ZM761.141 539.188L760.416 539.877L760.419 539.879L761.141 539.188ZM757.531 506L756.633 505.561L756.631 505.564L757.531 506ZM765.594 496.719L766.136 497.559L766.138 497.558L765.594 496.719ZM797.703 522.125V523.125H798.703V522.125H797.703ZM763.344 522.125V521.125H762.318L762.344 522.15L763.344 522.125ZM767.703 534.266L766.959 534.934L766.967 534.942L767.703 534.266ZM791.75 532.016L792.364 531.227L791.572 530.61L790.959 531.404L791.75 532.016ZM797.047 536.141L797.885 536.686L798.386 535.916L797.661 535.352L797.047 536.141ZM768.031 504.312L768.761 504.997L768.765 504.992L768.031 504.312ZM763.625 515L762.632 514.878L762.495 516H763.625V515ZM789.031 515V516H790.031V515H789.031ZM789.031 514.344H790.031V514.315L790.03 514.287L789.031 514.344ZM785.469 504.125L784.715 504.782L784.719 504.787L785.469 504.125ZM777.922 544.938C771.288 544.938 765.966 542.777 761.863 538.496L760.419 539.879C764.94 544.598 770.805 546.938 777.922 546.938V544.938ZM761.865 538.498C757.765 534.19 755.672 528.41 755.672 521.047H753.672C753.672 528.809 755.891 535.122 760.416 539.877L761.865 538.498ZM755.672 521.047V519.453H753.672V521.047H755.672ZM755.672 519.453C755.672 514.55 756.6 510.218 758.431 506.436L756.631 505.564C754.65 509.657 753.672 514.294 753.672 519.453H755.672ZM758.43 506.439C760.294 502.62 762.864 499.671 766.136 497.559L765.051 495.879C761.449 498.204 758.643 501.442 756.633 505.561L758.43 506.439ZM766.138 497.558C769.449 495.41 773.011 494.344 776.844 494.344V492.344C772.614 492.344 768.676 493.528 765.05 495.88L766.138 497.558ZM776.844 494.344C783.195 494.344 788.019 496.423 791.454 500.503L792.984 499.215C789.106 494.608 783.68 492.344 776.844 492.344V494.344ZM791.454 500.503C794.905 504.604 796.703 510.559 796.703 518.516H798.703C798.703 510.285 796.845 503.803 792.984 499.215L791.454 500.503ZM796.703 518.516V522.125H798.703V518.516H796.703ZM797.703 521.125H763.344V523.125H797.703V521.125ZM762.344 522.15C762.474 527.338 763.988 531.629 766.959 534.934L768.447 533.597C765.856 530.715 764.464 526.912 764.343 522.1L762.344 522.15ZM766.967 534.942C769.976 538.219 773.81 539.859 778.391 539.859V537.859C774.346 537.859 771.055 536.437 768.44 533.589L766.967 534.942ZM778.391 539.859C781.589 539.859 784.367 539.206 786.679 537.846L785.665 536.122C783.727 537.263 781.318 537.859 778.391 537.859V539.859ZM786.679 537.846C788.92 536.528 790.874 534.785 792.541 532.627L790.959 531.404C789.438 533.372 787.674 534.941 785.665 536.122L786.679 537.846ZM791.136 532.805L796.432 536.93L797.661 535.352L792.364 531.227L791.136 532.805ZM796.209 535.595C792.162 541.814 786.12 544.938 777.922 544.938V546.938C786.724 546.938 793.431 543.53 797.885 536.686L796.209 535.595ZM776.844 499.469C773.066 499.469 769.862 500.866 767.298 503.633L768.765 504.992C770.95 502.634 773.622 501.469 776.844 501.469V499.469ZM767.302 503.628C764.74 506.359 763.212 510.144 762.632 514.878L764.618 515.122C765.163 510.669 766.572 507.329 768.761 504.997L767.302 503.628ZM763.625 516H789.031V514H763.625V516ZM790.031 515V514.344H788.031V515H790.031ZM790.03 514.287C789.772 509.74 788.539 506.091 786.218 503.463L784.719 504.787C786.649 506.972 787.791 510.135 788.033 514.4L790.03 514.287ZM786.223 503.468C783.883 500.785 780.719 499.469 776.844 499.469V501.469C780.219 501.469 782.804 502.59 784.715 504.782L786.223 503.468ZM834.641 526.109L834.041 526.909L834.049 526.915L834.057 526.921L834.641 526.109ZM825.406 522.734L825.197 523.712L825.198 523.712L825.406 522.734ZM814.953 519.359L814.497 520.249L814.502 520.252L814.953 519.359ZM809.234 514.672L808.404 515.23L808.411 515.24L809.234 514.672ZM812.656 497.656L812.025 496.881L812.022 496.884L812.656 497.656ZM840.125 497.797L839.485 498.565L839.488 498.568L840.125 497.797ZM845.516 509.188V510.188H846.516V509.188H845.516ZM836.797 509.188H835.797V510.188H836.797V509.188ZM833.75 503.047L833.098 503.805L833.104 503.81L833.75 503.047ZM827.516 515.703L827.296 516.679L827.298 516.679L827.516 515.703ZM844.016 524.047L843.186 524.605L843.191 524.613L843.196 524.62L844.016 524.047ZM840.547 541.859L841.147 542.659L841.151 542.656L840.547 541.859ZM808.297 537.781L807.468 538.341L807.476 538.352L808.297 537.781ZM805.672 529.391V528.391H804.672V529.391H805.672ZM814.344 529.391L815.342 529.337L815.291 528.391H814.344V529.391ZM817.812 536.328L817.189 537.11L817.195 537.115L817.202 537.12L817.812 536.328ZM834.312 536.891L834.867 537.723L834.87 537.721L834.312 536.891ZM838.312 531.547C838.312 528.907 837.287 526.781 835.225 525.298L834.057 526.921C835.557 528 836.312 529.499 836.312 531.547H838.312ZM835.241 525.309C833.306 523.858 830.043 522.699 825.614 521.756L825.198 523.712C829.582 524.645 832.476 525.736 834.041 526.909L835.241 525.309ZM825.616 521.757C821.285 520.829 817.892 519.726 815.405 518.467L814.502 520.252C817.201 521.618 820.778 522.765 825.197 523.712L825.616 521.757ZM815.409 518.469C812.95 517.21 811.189 515.745 810.058 514.104L808.411 515.24C809.78 517.224 811.831 518.884 814.497 520.249L815.409 518.469ZM810.064 514.114C808.972 512.489 808.406 510.534 808.406 508.203H806.406C806.406 510.872 807.059 513.229 808.405 515.23L810.064 514.114ZM808.406 508.203C808.406 504.375 809.999 501.133 813.291 498.429L812.022 496.884C808.314 499.929 806.406 503.718 806.406 508.203H808.406ZM813.288 498.432C816.607 495.73 820.869 494.344 826.156 494.344V492.344C820.506 492.344 815.768 493.833 812.025 496.881L813.288 498.432ZM826.156 494.344C831.73 494.344 836.142 495.779 839.485 498.565L840.765 497.029C836.983 493.877 832.082 492.344 826.156 492.344V494.344ZM839.488 498.568C842.854 501.348 844.516 504.863 844.516 509.188H846.516C846.516 504.262 844.583 500.183 840.762 497.026L839.488 498.568ZM845.516 508.188H836.797V510.188H845.516V508.188ZM837.797 509.188C837.797 506.481 836.621 504.167 834.396 502.283L833.104 503.81C834.941 505.365 835.797 507.144 835.797 509.188H837.797ZM834.402 502.288C832.192 500.389 829.417 499.469 826.156 499.469V501.469C829.02 501.469 831.308 502.267 833.098 503.805L834.402 502.288ZM826.156 499.469C822.866 499.469 820.154 500.185 818.139 501.74L819.361 503.323C820.909 502.128 823.134 501.469 826.156 501.469V499.469ZM818.139 501.74C816.116 503.301 815.078 505.388 815.078 507.922H817.078C817.078 506.018 817.821 504.512 819.361 503.323L818.139 501.74ZM815.078 507.922C815.078 510.33 816.058 512.238 818.023 513.498L819.102 511.815C817.754 510.95 817.078 509.701 817.078 507.922H815.078ZM818.023 513.498C819.839 514.663 822.976 515.708 827.296 516.679L827.735 514.727C823.43 513.76 820.598 512.774 819.102 511.815L818.023 513.498ZM827.298 516.679C831.596 517.638 835.027 518.772 837.615 520.066L838.51 518.277C835.723 516.884 832.122 515.706 827.733 514.727L827.298 516.679ZM837.615 520.066C840.195 521.356 842.026 522.879 843.186 524.605L844.846 523.489C843.443 521.402 841.305 519.675 838.51 518.277L837.615 520.066ZM843.196 524.62C844.37 526.298 844.984 528.384 844.984 530.938H846.984C846.984 528.053 846.286 525.546 844.835 523.473L843.196 524.62ZM844.984 530.938C844.984 535.154 843.319 538.501 839.942 541.063L841.151 542.656C845.024 539.718 846.984 535.783 846.984 530.938H844.984ZM839.947 541.059C836.538 543.616 832.063 544.938 826.438 544.938V546.938C832.375 546.938 837.306 545.54 841.147 542.659L839.947 541.059ZM826.438 544.938C822.493 544.938 819.046 544.24 816.074 542.873L815.238 544.69C818.516 546.197 822.257 546.938 826.438 546.938V544.938ZM816.074 542.873C813.094 541.502 810.787 539.612 809.118 537.21L807.476 538.352C809.369 541.076 811.968 543.186 815.238 544.69L816.074 542.873ZM809.126 537.222C807.482 534.786 806.672 532.182 806.672 529.391H804.672C804.672 532.599 805.612 535.589 807.468 538.341L809.126 537.222ZM805.672 530.391H814.344V528.391H805.672V530.391ZM813.345 529.444C813.516 532.618 814.796 535.202 817.189 537.11L818.436 535.546C816.517 534.016 815.484 531.976 815.342 529.337L813.345 529.444ZM817.202 537.12C819.609 538.977 822.718 539.859 826.438 539.859V537.859C823.032 537.859 820.391 537.054 818.423 535.536L817.202 537.12ZM826.438 539.859C829.842 539.859 832.682 539.179 834.867 537.723L833.758 536.059C832.006 537.227 829.595 537.859 826.438 537.859V539.859ZM834.87 537.721C837.119 536.21 838.312 534.131 838.312 531.547H836.312C836.312 533.4 835.506 534.884 833.755 536.061L834.87 537.721ZM934.906 545V546H935.906V545H934.906ZM925.859 545L925.022 545.547L925.318 546H925.859V545ZM891.5 492.406L892.337 491.859L890.5 489.047V492.406H891.5ZM891.5 545V546H892.5V545H891.5ZM882.453 545H881.453V546H882.453V545ZM882.453 476.75V475.75H881.453V476.75H882.453ZM891.5 476.75L892.338 476.204L892.042 475.75H891.5V476.75ZM925.953 529.578L925.116 530.124L926.953 532.942V529.578H925.953ZM925.953 476.75V475.75H924.953V476.75H925.953ZM934.906 476.75H935.906V475.75H934.906V476.75ZM934.906 544H925.859V546H934.906V544ZM926.697 544.453L892.337 491.859L890.663 492.953L925.022 545.547L926.697 544.453ZM890.5 492.406V545H892.5V492.406H890.5ZM891.5 544H882.453V546H891.5V544ZM883.453 545V476.75H881.453V545H883.453ZM882.453 477.75H891.5V475.75H882.453V477.75ZM890.662 477.296L925.116 530.124L926.791 529.032L892.338 476.204L890.662 477.296ZM926.953 529.578V476.75H924.953V529.578H926.953ZM925.953 477.75H934.906V475.75H925.953V477.75ZM933.906 476.75V545H935.906V476.75H933.906ZM950.141 505.766L949.245 505.321L949.242 505.327L950.141 505.766ZM958.297 496.578L957.772 495.727L957.769 495.729L958.297 496.578ZM986.984 500.516L986.237 501.18L986.239 501.183L986.984 500.516ZM990.547 533.516L989.647 533.08L989.645 533.083L990.547 533.516ZM982.438 542.656L981.911 541.806L981.908 541.808L982.438 542.656ZM953.609 538.766L952.862 539.43L952.864 539.433L953.609 538.766ZM959.844 533.75L959.048 534.356L959.052 534.36L959.844 533.75ZM980.844 533.703L981.642 534.305L981.645 534.302L980.844 533.703ZM980.75 505.672L979.953 506.275L979.959 506.283L980.75 505.672ZM948.234 519.172C948.234 514.336 949.176 510.02 951.039 506.204L949.242 505.327C947.23 509.449 946.234 514.07 946.234 519.172H948.234ZM951.036 506.21C952.93 502.393 955.527 499.477 958.825 497.427L957.769 495.729C954.129 497.992 951.289 501.201 949.245 505.321L951.036 506.21ZM958.821 497.43C962.15 495.379 965.95 494.344 970.25 494.344V492.344C965.613 492.344 961.444 493.465 957.772 495.727L958.821 497.43ZM970.25 494.344C976.896 494.344 982.193 496.631 986.237 501.18L987.732 499.851C983.276 494.838 977.416 492.344 970.25 492.344V494.344ZM986.239 501.183C990.32 505.74 992.406 511.842 992.406 519.594H994.406C994.406 511.471 992.211 504.854 987.729 499.849L986.239 501.183ZM992.406 519.594V520.203H994.406V519.594H992.406ZM992.406 520.203C992.406 525.009 991.479 529.295 989.647 533.08L991.447 533.951C993.427 529.861 994.406 525.272 994.406 520.203H992.406ZM989.645 533.083C987.849 536.825 985.273 539.724 981.911 541.806L982.964 543.506C986.665 541.214 989.495 538.019 991.448 533.948L989.645 533.083ZM981.908 541.808C978.583 543.886 974.739 544.938 970.344 544.938V546.938C975.073 546.938 979.292 545.801 982.967 543.504L981.908 541.808ZM970.344 544.938C963.73 544.938 958.431 542.652 954.354 538.099L952.864 539.433C957.35 544.442 963.207 546.938 970.344 546.938V544.938ZM954.357 538.101C950.305 533.543 948.234 527.47 948.234 519.781H946.234C946.234 527.842 948.414 534.426 952.862 539.43L954.357 538.101ZM948.234 519.781V519.172H946.234V519.781H948.234ZM954.953 520.203C954.953 525.978 956.285 530.728 959.048 534.356L960.639 533.144C958.215 529.96 956.953 525.678 956.953 520.203H954.953ZM959.052 534.36C961.87 538.017 965.665 539.859 970.344 539.859V537.859C966.273 537.859 963.068 536.295 960.636 533.14L959.052 534.36ZM970.344 539.859C975.055 539.859 978.854 538 981.642 534.305L980.045 533.101C977.646 536.281 974.445 537.859 970.344 537.859V539.859ZM981.645 534.302C984.413 530.599 985.734 525.516 985.734 519.172H983.734C983.734 525.266 982.462 529.869 980.043 533.104L981.645 534.302ZM985.734 519.172C985.734 513.451 984.367 508.717 981.541 505.06L979.959 506.283C982.446 509.502 983.734 513.768 983.734 519.172H985.734ZM981.547 505.068C978.732 501.348 974.936 499.469 970.25 499.469V501.469C974.314 501.469 977.518 503.058 979.953 506.275L981.547 505.068ZM970.25 499.469C965.657 499.469 961.912 501.317 959.099 504.968L960.683 506.189C963.119 503.027 966.281 501.469 970.25 501.469V499.469ZM959.099 504.968C956.288 508.615 954.953 513.739 954.953 520.203H956.953C956.953 513.98 958.243 509.354 960.683 506.189L959.099 504.968ZM1016.05 482H1017.05V481H1016.05V482ZM1016.05 494.281H1015.05V495.281H1016.05V494.281ZM1025.52 494.281H1026.52V493.281H1025.52V494.281ZM1025.52 500.984V501.984H1026.52V500.984H1025.52ZM1016.05 500.984V499.984H1015.05V500.984H1016.05ZM1017.31 537.031L1016.54 537.664L1016.54 537.67L1016.55 537.676L1017.31 537.031ZM1025.75 537.969H1026.75V536.732L1025.54 536.991L1025.75 537.969ZM1025.75 545L1026.01 545.964L1026.75 545.763V545H1025.75ZM1007.38 500.984H1008.38V499.984H1007.38V500.984ZM998.141 500.984H997.141V501.984H998.141V500.984ZM998.141 494.281V493.281H997.141V494.281H998.141ZM1007.38 494.281V495.281H1008.38V494.281H1007.38ZM1007.38 482V481H1006.38V482H1007.38ZM1015.05 482V494.281H1017.05V482H1015.05ZM1016.05 495.281H1025.52V493.281H1016.05V495.281ZM1024.52 494.281V500.984H1026.52V494.281H1024.52ZM1025.52 499.984H1016.05V501.984H1025.52V499.984ZM1015.05 500.984V532.438H1017.05V500.984H1015.05ZM1015.05 532.438C1015.05 534.584 1015.49 536.382 1016.54 537.664L1018.09 536.398C1017.45 535.618 1017.05 534.353 1017.05 532.438H1015.05ZM1016.55 537.676C1017.67 539.002 1019.46 539.531 1021.62 539.531V537.531C1019.73 537.531 1018.65 537.061 1018.08 536.386L1016.55 537.676ZM1021.62 539.531C1022.73 539.531 1024.19 539.327 1025.96 538.947L1025.54 536.991C1023.81 537.361 1022.52 537.531 1021.62 537.531V539.531ZM1024.75 537.969V545H1026.75V537.969H1024.75ZM1025.49 544.036C1023.28 544.639 1021.15 544.938 1019.09 544.938V546.938C1021.35 546.938 1023.66 546.611 1026.01 545.964L1025.49 544.036ZM1019.09 544.938C1015.43 544.938 1012.82 543.838 1011.09 541.779L1009.56 543.065C1011.77 545.693 1015.01 546.938 1019.09 546.938V544.938ZM1011.09 541.779C1009.33 539.676 1008.38 536.61 1008.38 532.438H1006.38C1006.38 536.89 1007.39 540.48 1009.56 543.065L1011.09 541.779ZM1008.38 532.438V500.984H1006.38V532.438H1008.38ZM1007.38 499.984H998.141V501.984H1007.38V499.984ZM999.141 500.984V494.281H997.141V500.984H999.141ZM998.141 495.281H1007.38V493.281H998.141V495.281ZM1008.38 494.281V482H1006.38V494.281H1008.38ZM1007.38 483H1016.05V481H1007.38V483ZM1099.44 513.453V514.453H1100.44V513.453H1099.44ZM1069.86 513.453V512.453H1068.86V513.453H1069.86ZM1069.86 537.641H1068.86V538.641H1069.86V537.641ZM1104.22 537.641H1105.22V536.641H1104.22V537.641ZM1104.22 545V546H1105.22V545H1104.22ZM1060.86 545H1059.86V546H1060.86V545ZM1060.86 476.75V475.75H1059.86V476.75H1060.86ZM1103.75 476.75H1104.75V475.75H1103.75V476.75ZM1103.75 484.156V485.156H1104.75V484.156H1103.75ZM1069.86 484.156V483.156H1068.86V484.156H1069.86ZM1069.86 506.094H1068.86V507.094H1069.86V506.094ZM1099.44 506.094H1100.44V505.094H1099.44V506.094ZM1099.44 512.453H1069.86V514.453H1099.44V512.453ZM1068.86 513.453V537.641H1070.86V513.453H1068.86ZM1069.86 538.641H1104.22V536.641H1069.86V538.641ZM1103.22 537.641V545H1105.22V537.641H1103.22ZM1104.22 544H1060.86V546H1104.22V544ZM1061.86 545V476.75H1059.86V545H1061.86ZM1060.86 477.75H1103.75V475.75H1060.86V477.75ZM1102.75 476.75V484.156H1104.75V476.75H1102.75ZM1103.75 483.156H1069.86V485.156H1103.75V483.156ZM1068.86 484.156V506.094H1070.86V484.156H1068.86ZM1069.86 507.094H1099.44V505.094H1069.86V507.094ZM1098.44 506.094V513.453H1100.44V506.094H1098.44ZM1131.08 512.797L1130.22 513.311L1131.07 514.732L1131.93 513.316L1131.08 512.797ZM1142.33 494.281V493.281H1141.77L1141.47 493.762L1142.33 494.281ZM1152.45 494.281L1153.29 494.833L1154.31 493.281H1152.45V494.281ZM1135.86 519.359L1135.03 518.808L1134.66 519.362L1135.03 519.914L1135.86 519.359ZM1152.97 545V546H1154.84L1153.8 544.445L1152.97 545ZM1142.94 545L1142.09 545.525L1142.38 546H1142.94V545ZM1131.22 526.016L1132.07 525.49L1131.22 524.112L1130.37 525.49L1131.22 526.016ZM1119.5 545V546H1120.06L1120.35 545.525L1119.5 545ZM1109.42 545L1108.59 544.445L1107.55 546H1109.42V545ZM1126.53 519.359L1127.36 519.914L1127.73 519.362L1127.37 518.808L1126.53 519.359ZM1109.94 494.281V493.281H1108.08L1109.1 494.833L1109.94 494.281ZM1119.97 494.281L1120.83 493.767L1120.53 493.281H1119.97V494.281ZM1131.93 513.316L1143.18 494.801L1141.47 493.762L1130.22 512.278L1131.93 513.316ZM1142.33 495.281H1152.45V493.281H1142.33V495.281ZM1151.62 493.729L1135.03 518.808L1136.69 519.911L1153.29 494.833L1151.62 493.729ZM1135.03 519.914L1152.14 545.555L1153.8 544.445L1136.69 518.804L1135.03 519.914ZM1152.97 544H1142.94V546H1152.97V544ZM1143.79 544.475L1132.07 525.49L1130.37 526.541L1142.09 545.525L1143.79 544.475ZM1130.37 525.49L1118.65 544.475L1120.35 545.525L1132.07 526.541L1130.37 525.49ZM1119.5 544H1109.42V546H1119.5V544ZM1110.25 545.555L1127.36 519.914L1125.7 518.804L1108.59 544.445L1110.25 545.555ZM1127.37 518.808L1110.77 493.729L1109.1 494.833L1125.7 519.911L1127.37 518.808ZM1109.94 495.281H1119.97V493.281H1109.94V495.281ZM1119.11 494.796L1130.22 513.311L1131.94 512.282L1120.83 493.767L1119.11 494.796ZM1171.11 545V546H1172.11V545H1171.11ZM1162.44 545H1161.44V546H1162.44V545ZM1162.44 494.281V493.281H1161.44V494.281H1162.44ZM1171.11 494.281H1172.11V493.281H1171.11V494.281ZM1163 477.266L1162.26 476.595L1162.25 476.602L1162.25 476.609L1163 477.266ZM1163 484.344L1162.26 485.013L1162.26 485.019L1162.27 485.026L1163 484.344ZM1171.11 544H1162.44V546H1171.11V544ZM1163.44 545V494.281H1161.44V545H1163.44ZM1162.44 495.281H1171.11V493.281H1162.44V495.281ZM1170.11 494.281V545H1172.11V494.281H1170.11ZM1162.73 480.828C1162.73 479.639 1163.08 478.691 1163.75 477.922L1162.25 476.609C1161.23 477.777 1160.73 479.205 1160.73 480.828H1162.73ZM1163.74 477.936C1164.38 477.234 1165.35 476.812 1166.84 476.812V474.812C1164.96 474.812 1163.37 475.359 1162.26 476.595L1163.74 477.936ZM1166.84 476.812C1168.34 476.812 1169.31 477.234 1169.95 477.936L1171.43 476.595C1170.31 475.359 1168.73 474.812 1166.84 474.812V476.812ZM1169.95 477.936C1170.64 478.706 1171 479.649 1171 480.828H1173C1173 479.195 1172.48 477.763 1171.43 476.595L1169.95 477.936ZM1171 480.828C1171 482.008 1170.64 482.928 1169.96 483.661L1171.42 485.026C1172.48 483.885 1173 482.461 1173 480.828H1171ZM1169.96 483.661C1169.33 484.338 1168.35 484.75 1166.84 484.75V486.75C1168.72 486.75 1170.3 486.225 1171.42 485.026L1169.96 483.661ZM1166.84 484.75C1165.34 484.75 1164.36 484.338 1163.73 483.661L1162.27 485.026C1163.39 486.225 1164.97 486.75 1166.84 486.75V484.75ZM1163.74 483.675C1163.08 482.942 1162.73 482.018 1162.73 480.828H1160.73C1160.73 482.451 1161.23 483.87 1162.26 485.013L1163.74 483.675ZM1211.89 526.109L1211.29 526.909L1211.3 526.915L1211.31 526.921L1211.89 526.109ZM1202.66 522.734L1202.45 523.712L1202.45 523.712L1202.66 522.734ZM1192.2 519.359L1191.75 520.249L1191.75 520.252L1192.2 519.359ZM1186.48 514.672L1185.65 515.23L1185.66 515.24L1186.48 514.672ZM1189.91 497.656L1189.27 496.881L1189.27 496.884L1189.91 497.656ZM1217.38 497.797L1216.73 498.565L1216.74 498.568L1217.38 497.797ZM1222.77 509.188V510.188H1223.77V509.188H1222.77ZM1214.05 509.188H1213.05V510.188H1214.05V509.188ZM1211 503.047L1210.35 503.805L1210.35 503.81L1211 503.047ZM1204.77 515.703L1204.55 516.679L1204.55 516.679L1204.77 515.703ZM1221.27 524.047L1220.44 524.605L1220.44 524.613L1220.45 524.62L1221.27 524.047ZM1217.8 541.859L1218.4 542.659L1218.4 542.656L1217.8 541.859ZM1185.55 537.781L1184.72 538.341L1184.73 538.352L1185.55 537.781ZM1182.92 529.391V528.391H1181.92V529.391H1182.92ZM1191.59 529.391L1192.59 529.337L1192.54 528.391H1191.59V529.391ZM1195.06 536.328L1194.44 537.11L1194.45 537.115L1194.45 537.12L1195.06 536.328ZM1211.56 536.891L1212.12 537.723L1212.12 537.721L1211.56 536.891ZM1215.56 531.547C1215.56 528.907 1214.54 526.781 1212.47 525.298L1211.31 526.921C1212.81 528 1213.56 529.499 1213.56 531.547H1215.56ZM1212.49 525.309C1210.56 523.858 1207.29 522.699 1202.86 521.756L1202.45 523.712C1206.83 524.645 1209.73 525.736 1211.29 526.909L1212.49 525.309ZM1202.87 521.757C1198.53 520.829 1195.14 519.726 1192.65 518.467L1191.75 520.252C1194.45 521.618 1198.03 522.765 1202.45 523.712L1202.87 521.757ZM1192.66 518.469C1190.2 517.21 1188.44 515.745 1187.31 514.104L1185.66 515.24C1187.03 517.224 1189.08 518.884 1191.75 520.249L1192.66 518.469ZM1187.31 514.114C1186.22 512.489 1185.66 510.534 1185.66 508.203H1183.66C1183.66 510.872 1184.31 513.229 1185.65 515.23L1187.31 514.114ZM1185.66 508.203C1185.66 504.375 1187.25 501.133 1190.54 498.429L1189.27 496.884C1185.56 499.929 1183.66 503.718 1183.66 508.203H1185.66ZM1190.54 498.432C1193.86 495.73 1198.12 494.344 1203.41 494.344V492.344C1197.76 492.344 1193.02 493.833 1189.27 496.881L1190.54 498.432ZM1203.41 494.344C1208.98 494.344 1213.39 495.779 1216.73 498.565L1218.02 497.029C1214.23 493.877 1209.33 492.344 1203.41 492.344V494.344ZM1216.74 498.568C1220.1 501.348 1221.77 504.863 1221.77 509.188H1223.77C1223.77 504.262 1221.83 500.183 1218.01 497.026L1216.74 498.568ZM1222.77 508.188H1214.05V510.188H1222.77V508.188ZM1215.05 509.188C1215.05 506.481 1213.87 504.167 1211.65 502.283L1210.35 503.81C1212.19 505.365 1213.05 507.144 1213.05 509.188H1215.05ZM1211.65 502.288C1209.44 500.389 1206.67 499.469 1203.41 499.469V501.469C1206.27 501.469 1208.56 502.267 1210.35 503.805L1211.65 502.288ZM1203.41 499.469C1200.12 499.469 1197.4 500.185 1195.39 501.74L1196.61 503.323C1198.16 502.128 1200.38 501.469 1203.41 501.469V499.469ZM1195.39 501.74C1193.37 503.301 1192.33 505.388 1192.33 507.922H1194.33C1194.33 506.018 1195.07 504.512 1196.61 503.323L1195.39 501.74ZM1192.33 507.922C1192.33 510.33 1193.31 512.238 1195.27 513.498L1196.35 511.815C1195 510.95 1194.33 509.701 1194.33 507.922H1192.33ZM1195.27 513.498C1197.09 514.663 1200.23 515.708 1204.55 516.679L1204.98 514.727C1200.68 513.76 1197.85 512.774 1196.35 511.815L1195.27 513.498ZM1204.55 516.679C1208.85 517.638 1212.28 518.772 1214.87 520.066L1215.76 518.277C1212.97 516.884 1209.37 515.706 1204.98 514.727L1204.55 516.679ZM1214.87 520.066C1217.44 521.356 1219.28 522.879 1220.44 524.605L1222.1 523.489C1220.69 521.402 1218.56 519.675 1215.76 518.277L1214.87 520.066ZM1220.45 524.62C1221.62 526.298 1222.23 528.384 1222.23 530.938H1224.23C1224.23 528.053 1223.54 525.546 1222.08 523.473L1220.45 524.62ZM1222.23 530.938C1222.23 535.154 1220.57 538.501 1217.19 541.063L1218.4 542.656C1222.27 539.718 1224.23 535.783 1224.23 530.938H1222.23ZM1217.2 541.059C1213.79 543.616 1209.31 544.938 1203.69 544.938V546.938C1209.62 546.938 1214.56 545.54 1218.4 542.659L1217.2 541.059ZM1203.69 544.938C1199.74 544.938 1196.3 544.24 1193.32 542.873L1192.49 544.69C1195.77 546.197 1199.51 546.938 1203.69 546.938V544.938ZM1193.32 542.873C1190.34 541.502 1188.04 539.612 1186.37 537.21L1184.73 538.352C1186.62 541.076 1189.22 543.186 1192.49 544.69L1193.32 542.873ZM1186.38 537.222C1184.73 534.786 1183.92 532.182 1183.92 529.391H1181.92C1181.92 532.599 1182.86 535.589 1184.72 538.341L1186.38 537.222ZM1182.92 530.391H1191.59V528.391H1182.92V530.391ZM1190.6 529.444C1190.77 532.618 1192.05 535.202 1194.44 537.11L1195.69 535.546C1193.77 534.016 1192.73 531.976 1192.59 529.337L1190.6 529.444ZM1194.45 537.12C1196.86 538.977 1199.97 539.859 1203.69 539.859V537.859C1200.28 537.859 1197.64 537.054 1195.67 535.536L1194.45 537.12ZM1203.69 539.859C1207.09 539.859 1209.93 539.179 1212.12 537.723L1211.01 536.059C1209.26 537.227 1206.85 537.859 1203.69 537.859V539.859ZM1212.12 537.721C1214.37 536.21 1215.56 534.131 1215.56 531.547H1213.56C1213.56 533.4 1212.76 534.884 1211 536.061L1212.12 537.721ZM1246.3 482H1247.3V481H1246.3V482ZM1246.3 494.281H1245.3V495.281H1246.3V494.281ZM1255.77 494.281H1256.77V493.281H1255.77V494.281ZM1255.77 500.984V501.984H1256.77V500.984H1255.77ZM1246.3 500.984V499.984H1245.3V500.984H1246.3ZM1247.56 537.031L1246.79 537.664L1246.79 537.67L1246.8 537.676L1247.56 537.031ZM1256 537.969H1257V536.732L1255.79 536.991L1256 537.969ZM1256 545L1256.26 545.964L1257 545.763V545H1256ZM1237.62 500.984H1238.62V499.984H1237.62V500.984ZM1228.39 500.984H1227.39V501.984H1228.39V500.984ZM1228.39 494.281V493.281H1227.39V494.281H1228.39ZM1237.62 494.281V495.281H1238.62V494.281H1237.62ZM1237.62 482V481H1236.62V482H1237.62ZM1245.3 482V494.281H1247.3V482H1245.3ZM1246.3 495.281H1255.77V493.281H1246.3V495.281ZM1254.77 494.281V500.984H1256.77V494.281H1254.77ZM1255.77 499.984H1246.3V501.984H1255.77V499.984ZM1245.3 500.984V532.438H1247.3V500.984H1245.3ZM1245.3 532.438C1245.3 534.584 1245.74 536.382 1246.79 537.664L1248.34 536.398C1247.7 535.618 1247.3 534.353 1247.3 532.438H1245.3ZM1246.8 537.676C1247.92 539.002 1249.71 539.531 1251.88 539.531V537.531C1249.98 537.531 1248.9 537.061 1248.33 536.386L1246.8 537.676ZM1251.88 539.531C1252.98 539.531 1254.44 539.327 1256.21 538.947L1255.79 536.991C1254.06 537.361 1252.77 537.531 1251.88 537.531V539.531ZM1255 537.969V545H1257V537.969H1255ZM1255.74 544.036C1253.53 544.639 1251.4 544.938 1249.34 544.938V546.938C1251.6 546.938 1253.91 546.611 1256.26 545.964L1255.74 544.036ZM1249.34 544.938C1245.68 544.938 1243.07 543.838 1241.34 541.779L1239.81 543.065C1242.02 545.693 1245.26 546.938 1249.34 546.938V544.938ZM1241.34 541.779C1239.58 539.676 1238.62 536.61 1238.62 532.438H1236.62C1236.62 536.89 1237.64 540.48 1239.81 543.065L1241.34 541.779ZM1238.62 532.438V500.984H1236.62V532.438H1238.62ZM1237.62 499.984H1228.39V501.984H1237.62V499.984ZM1229.39 500.984V494.281H1227.39V500.984H1229.39ZM1228.39 495.281H1237.62V493.281H1228.39V495.281ZM1238.62 494.281V482H1236.62V494.281H1238.62ZM1237.62 483H1246.3V481H1237.62V483ZM1292.8 526.109L1292.2 526.909L1292.2 526.915L1292.21 526.921L1292.8 526.109ZM1283.56 522.734L1283.35 523.712L1283.35 523.712L1283.56 522.734ZM1273.11 519.359L1272.65 520.249L1272.66 520.252L1273.11 519.359ZM1267.39 514.672L1266.56 515.23L1266.57 515.24L1267.39 514.672ZM1270.81 497.656L1270.18 496.881L1270.18 496.884L1270.81 497.656ZM1298.28 497.797L1297.64 498.565L1297.64 498.568L1298.28 497.797ZM1303.67 509.188V510.188H1304.67V509.188H1303.67ZM1294.95 509.188H1293.95V510.188H1294.95V509.188ZM1291.91 503.047L1291.25 503.805L1291.26 503.81L1291.91 503.047ZM1285.67 515.703L1285.45 516.679L1285.45 516.679L1285.67 515.703ZM1302.17 524.047L1301.34 524.605L1301.35 524.613L1301.35 524.62L1302.17 524.047ZM1298.7 541.859L1299.3 542.659L1299.31 542.656L1298.7 541.859ZM1266.45 537.781L1265.62 538.341L1265.63 538.352L1266.45 537.781ZM1263.83 529.391V528.391H1262.83V529.391H1263.83ZM1272.5 529.391L1273.5 529.337L1273.45 528.391H1272.5V529.391ZM1275.97 536.328L1275.35 537.11L1275.35 537.115L1275.36 537.12L1275.97 536.328ZM1292.47 536.891L1293.02 537.723L1293.03 537.721L1292.47 536.891ZM1296.47 531.547C1296.47 528.907 1295.44 526.781 1293.38 525.298L1292.21 526.921C1293.71 528 1294.47 529.499 1294.47 531.547H1296.47ZM1293.4 525.309C1291.46 523.858 1288.2 522.699 1283.77 521.756L1283.35 523.712C1287.74 524.645 1290.63 525.736 1292.2 526.909L1293.4 525.309ZM1283.77 521.757C1279.44 520.829 1276.05 519.726 1273.56 518.467L1272.66 520.252C1275.36 521.618 1278.93 522.765 1283.35 523.712L1283.77 521.757ZM1273.57 518.469C1271.11 517.21 1269.35 515.745 1268.21 514.104L1266.57 515.24C1267.94 517.224 1269.99 518.884 1272.65 520.249L1273.57 518.469ZM1268.22 514.114C1267.13 512.489 1266.56 510.534 1266.56 508.203H1264.56C1264.56 510.872 1265.22 513.229 1266.56 515.23L1268.22 514.114ZM1266.56 508.203C1266.56 504.375 1268.15 501.133 1271.45 498.429L1270.18 496.884C1266.47 499.929 1264.56 503.718 1264.56 508.203H1266.56ZM1271.44 498.432C1274.76 495.73 1279.03 494.344 1284.31 494.344V492.344C1278.66 492.344 1273.92 493.833 1270.18 496.881L1271.44 498.432ZM1284.31 494.344C1289.89 494.344 1294.3 495.779 1297.64 498.565L1298.92 497.029C1295.14 493.877 1290.24 492.344 1284.31 492.344V494.344ZM1297.64 498.568C1301.01 501.348 1302.67 504.863 1302.67 509.188H1304.67C1304.67 504.262 1302.74 500.183 1298.92 497.026L1297.64 498.568ZM1303.67 508.188H1294.95V510.188H1303.67V508.188ZM1295.95 509.188C1295.95 506.481 1294.78 504.167 1292.55 502.283L1291.26 503.81C1293.1 505.365 1293.95 507.144 1293.95 509.188H1295.95ZM1292.56 502.288C1290.35 500.389 1287.57 499.469 1284.31 499.469V501.469C1287.18 501.469 1289.46 502.267 1291.25 503.805L1292.56 502.288ZM1284.31 499.469C1281.02 499.469 1278.31 500.185 1276.3 501.74L1277.52 503.323C1279.07 502.128 1281.29 501.469 1284.31 501.469V499.469ZM1276.3 501.74C1274.27 503.301 1273.23 505.388 1273.23 507.922H1275.23C1275.23 506.018 1275.98 504.512 1277.52 503.323L1276.3 501.74ZM1273.23 507.922C1273.23 510.33 1274.21 512.238 1276.18 513.498L1277.26 511.815C1275.91 510.95 1275.23 509.701 1275.23 507.922H1273.23ZM1276.18 513.498C1278 514.663 1281.13 515.708 1285.45 516.679L1285.89 514.727C1281.59 513.76 1278.75 512.774 1277.26 511.815L1276.18 513.498ZM1285.45 516.679C1289.75 517.638 1293.18 518.772 1295.77 520.066L1296.67 518.277C1293.88 516.884 1290.28 515.706 1285.89 514.727L1285.45 516.679ZM1295.77 520.066C1298.35 521.356 1300.18 522.879 1301.34 524.605L1303 523.489C1301.6 521.402 1299.46 519.675 1296.67 518.277L1295.77 520.066ZM1301.35 524.62C1302.53 526.298 1303.14 528.384 1303.14 530.938H1305.14C1305.14 528.053 1304.44 525.546 1302.99 523.473L1301.35 524.62ZM1303.14 530.938C1303.14 535.154 1301.48 538.501 1298.1 541.063L1299.31 542.656C1303.18 539.718 1305.14 535.783 1305.14 530.938H1303.14ZM1298.1 541.059C1294.69 543.616 1290.22 544.938 1284.59 544.938V546.938C1290.53 546.938 1295.46 545.54 1299.3 542.659L1298.1 541.059ZM1284.59 544.938C1280.65 544.938 1277.2 544.24 1274.23 542.873L1273.39 544.69C1276.67 546.197 1280.41 546.938 1284.59 546.938V544.938ZM1274.23 542.873C1271.25 541.502 1268.94 539.612 1267.27 537.21L1265.63 538.352C1267.53 541.076 1270.12 543.186 1273.39 544.69L1274.23 542.873ZM1267.28 537.222C1265.64 534.786 1264.83 532.182 1264.83 529.391H1262.83C1262.83 532.599 1263.77 535.589 1265.62 538.341L1267.28 537.222ZM1263.83 530.391H1272.5V528.391H1263.83V530.391ZM1271.5 529.444C1271.67 532.618 1272.95 535.202 1275.35 537.11L1276.59 535.546C1274.67 534.016 1273.64 531.976 1273.5 529.337L1271.5 529.444ZM1275.36 537.12C1277.77 538.977 1280.87 539.859 1284.59 539.859V537.859C1281.19 537.859 1278.55 537.054 1276.58 535.536L1275.36 537.12ZM1284.59 539.859C1288 539.859 1290.84 539.179 1293.02 537.723L1291.91 536.059C1290.16 537.227 1287.75 537.859 1284.59 537.859V539.859ZM1293.03 537.721C1295.27 536.21 1296.47 534.131 1296.47 531.547H1294.47C1294.47 533.4 1293.66 534.884 1291.91 536.061L1293.03 537.721Z" fill="white"/>
<rect x="1096" y="246.101" width="687" height="282" rx="141" transform="rotate(-52.5092 1096 246.101)" fill="#C4C4C4"/>
<rect x="709.417" y="538" width="892" height="286" rx="143" transform="rotate(48.2633 709.417 538)" fill="#646464"/>
</g>
<defs>
<clipPath id="clip0">
<rect width="1440" height="1024" fill="white"/>
</clipPath>
</defs>
</svg>
